<?xml version="1.0" encoding="UTF-8"?>
<svg xmlns="http://www.w3.org/2000/svg" xmlns:xlink="http://www.w3.org/1999/xlink"
     width="1050" height="1050" viewBox="-525.0 -525.0 1050 1050" displayInline="False">
<defs>
</defs>
<circle cx="0" cy="0" r="500" fill="lightgrey" stroke-width="2" stroke="black" />
<circle cx="-231.15395093132537" cy="53.668668995498834" r="1.9300000000000002" fill="white" stroke-width="0.8" stroke="black" />
<circle cx="-128.49691672181038" cy="-86.70682173475294" r="1.7200000000000002" fill="white" stroke-width="0.8" stroke="black" />
<circle cx="-276.05565167821135" cy="120.81780378925934" r="1.17" fill="white" stroke-width="0.8" stroke="black" />
<circle cx="-337.02382681465906" cy="248.7098344490688" r="0.43999999999999995" fill="white" stroke-width="0.8" stroke="black" />
<circle cx="-164.5896603260155" cy="-79.62584298626355" r="0.31000000000000005" fill="white" stroke-width="0.8" stroke="black" />
<circle cx="-255.43638805691967" cy="19.81930129085748" r="0.73" fill="white" stroke-width="0.8" stroke="black" />
<circle cx="-155.3395571108666" cy="-92.38589474250281" r="1.7599999999999998" fill="white" stroke-width="0.8" stroke="black" />
<circle cx="-387.70333868641086" cy="281.75183321179725" r="1.96" fill="white" stroke-width="0.8" stroke="black" />
<circle cx="-153.99298735347566" cy="-102.36252000190171" r="0.54" fill="white" stroke-width="0.8" stroke="black" />
<circle cx="-144.1105428840931" cy="-117.40974502726736" r="1.85" fill="white" stroke-width="0.8" stroke="black" />
<circle cx="-240.81986067761082" cy="-29.635470289981644" r="0.14000000000000012" fill="white" stroke-width="0.8" stroke="black" />
<circle cx="-411.80428900173007" cy="206.77230593512334" r="0.54" fill="white" stroke-width="0.8" stroke="black" />
<circle cx="-262.3675149231239" cy="-28.91370888299757" r="1.9300000000000002" fill="white" stroke-width="0.8" stroke="black" />
<circle cx="-428.68226609125355" cy="176.33997983962797" r="0.3999999999999999" fill="white" stroke-width="0.8" stroke="black" />
<circle cx="-157.3350635281595" cy="-132.5897979893337" r="1.3399999999999999" fill="white" stroke-width="0.8" stroke="black" />
<circle cx="-362.5279347237143" cy="39.312555846972074" r="0.3799999999999999" fill="white" stroke-width="0.8" stroke="black" />
<circle cx="-220.0137101647587" cy="-103.66179857713286" r="0.41000000000000014" fill="white" stroke-width="0.8" stroke="black" />
<circle cx="-470.6453573705598" cy="153.72666519451238" r="0.2599999999999998" fill="white" stroke-width="0.8" stroke="black" />
<circle cx="-319.98174448378575" cy="-49.21812520559216" r="0.5800000000000001" fill="white" stroke-width="0.8" stroke="black" />
<circle cx="-366.4454713531211" cy="-6.482904589293546" r="0.1200000000000001" fill="white" stroke-width="0.8" stroke="black" />
<circle cx="-147.46289433021678" cy="-159.17805493996372" r="0.6499999999999999" fill="white" stroke-width="0.8" stroke="black" />
<circle cx="-360.76632484346413" cy="-14.582698344431249" r="1.3599999999999999" fill="white" stroke-width="0.8" stroke="black" />
<circle cx="-441.05111931446976" cy="62.74257501825588" r="0.18000000000000016" fill="white" stroke-width="0.8" stroke="black" />
<circle cx="-100.51077740101401" cy="-182.69769310226383" r="0.04999999999999982" fill="white" stroke-width="0.8" stroke="black" />
<circle cx="-263.5393187538184" cy="-106.58944918923711" r="1.9" fill="white" stroke-width="0.8" stroke="black" />
<circle cx="-358.15360413536075" cy="-41.793436181390284" r="1.9900000000000002" fill="white" stroke-width="0.8" stroke="black" />
<circle cx="-303.6116167683243" cy="-88.15168095097741" r="1.0" fill="white" stroke-width="0.8" stroke="black" />
<circle cx="-3.757634573939915" cy="-209.19503094000964" r="2.0300000000000002" fill="white" stroke-width="0.8" stroke="black" />
<circle cx="-478.34362283925276" cy="-3.439755924457706" r="0.5299999999999998" fill="white" stroke-width="0.8" stroke="black" />
<circle cx="-363.13255307154105" cy="-113.021012859976" r="0.3900000000000001" fill="white" stroke-width="0.8" stroke="black" />
<circle cx="-201.63257412827934" cy="-182.29151568715207" r="0.22999999999999998" fill="white" stroke-width="0.8" stroke="black" />
<circle cx="-220.3592584219308" cy="-180.12084109925496" r="0.06999999999999984" fill="white" stroke-width="0.8" stroke="black" />
<circle cx="-489.0781542194216" cy="-40.07915584019808" r="1.46" fill="white" stroke-width="0.8" stroke="black" />
<circle cx="-217.13655710523744" cy="-190.52222829770957" r="1.0899999999999999" fill="white" stroke-width="0.8" stroke="black" />
<circle cx="-302.97658600922654" cy="-164.36022293071576" r="0.6800000000000002" fill="white" stroke-width="0.8" stroke="black" />
<circle cx="-291.24772856162866" cy="-172.39384564835612" r="1.9100000000000001" fill="white" stroke-width="0.8" stroke="black" />
<circle cx="-268.6108401158566" cy="-181.3270084890272" r="0.20999999999999996" fill="white" stroke-width="0.8" stroke="black" />
<circle cx="-239.92245412172403" cy="-203.90803714885058" r="2.21" fill="white" stroke-width="0.8" stroke="black" />
<circle cx="-476.9911752800109" cy="-102.56340206792626" r="0.3900000000000001" fill="white" stroke-width="0.8" stroke="black" />
<circle cx="-474.2148500617834" cy="-109.70232368671292" r="0.27" fill="white" stroke-width="0.8" stroke="black" />
<circle cx="-252.13486766589443" cy="-220.62247447428206" r="0.9900000000000002" fill="white" stroke-width="0.8" stroke="black" />
<circle cx="-346.35270939296885" cy="-202.37508697778136" r="0.16000000000000014" fill="white" stroke-width="0.8" stroke="black" />
<circle cx="-395.74877729404847" cy="-186.1554214698042" r="0.2799999999999998" fill="white" stroke-width="0.8" stroke="black" />
<circle cx="-283.73338689343046" cy="-218.18425633075768" r="0.22999999999999998" fill="white" stroke-width="0.8" stroke="black" />
<circle cx="-394.3058208856362" cy="-188.28527405559345" r="0.1299999999999999" fill="white" stroke-width="0.8" stroke="black" />
<circle cx="-396.0234105392924" cy="-190.33128454377265" r="1.15" fill="white" stroke-width="0.8" stroke="black" />
<circle cx="-396.45414150266805" cy="-192.91901819997605" r="0.3799999999999999" fill="white" stroke-width="0.8" stroke="black" />
<circle cx="-348.73399918046437" cy="-215.72871809085726" r="1.1600000000000001" fill="white" stroke-width="0.8" stroke="black" />
<circle cx="-298.46006529570803" cy="-230.89962304577156" r="1.1" fill="white" stroke-width="0.8" stroke="black" />
<circle cx="-324.3416523726107" cy="-227.89159654111492" r="0.020000000000000018" fill="white" stroke-width="0.8" stroke="black" />
<circle cx="-249.39522286624754" cy="-247.53274216168177" r="0.040000000000000036" fill="white" stroke-width="0.8" stroke="black" />
<circle cx="-435.4519539246038" cy="-237.15300344236994" r="0.22999999999999998" fill="white" stroke-width="0.8" stroke="black" />
<circle cx="-423.891243687791" cy="-250.77827020336468" r="0.4700000000000002" fill="white" stroke-width="0.8" stroke="black" />
<circle cx="-323.2871807311735" cy="-308.04204563301585" r="1.31" fill="white" stroke-width="0.8" stroke="black" />
<circle cx="-254.87857641198943" cy="-307.55784530645604" r="0.9700000000000002" fill="white" stroke-width="0.8" stroke="black" />
<circle cx="-271.3027079603672" cy="-310.83538265513846" r="0.31000000000000005" fill="white" stroke-width="0.8" stroke="black" />
<circle cx="-268.1524590069007" cy="-315.53068087338477" r="0.8199999999999998" fill="white" stroke-width="0.8" stroke="black" />
<circle cx="-233.91188927934581" cy="-320.69191258172225" r="3.92" fill="white" stroke-width="0.8" stroke="black" />
<circle cx="-332.9570935154657" cy="-354.0659362364734" r="2.35" fill="white" stroke-width="0.8" stroke="black" />
<circle cx="-248.2298811512623" cy="-372.1462941044249" r="0.029999999999999805" fill="white" stroke-width="0.8" stroke="black" />
<circle cx="-161.0874363714869" cy="-339.06164564201737" r="0.2799999999999998" fill="white" stroke-width="0.8" stroke="black" />
<circle cx="-209.39458420445266" cy="-366.312974664175" r="2.1" fill="white" stroke-width="0.8" stroke="black" />
<circle cx="-251.50917756875933" cy="-386.2474953446287" r="1.35" fill="white" stroke-width="0.8" stroke="black" />
<circle cx="-204.661435889562" cy="-455.6484097923801" r="0.3999999999999999" fill="white" stroke-width="0.8" stroke="black" />
<circle cx="-17.673419220528658" cy="-371.35397890963685" r="0.6499999999999999" fill="white" stroke-width="0.8" stroke="black" />
<circle cx="10.673685687011835" cy="-442.48096448686726" r="0.8799999999999999" fill="white" stroke-width="0.8" stroke="black" />
<circle cx="14.750509143033039" cy="-477.1177382633072" r="0.040000000000000036" fill="white" stroke-width="0.8" stroke="black" />
<circle cx="16.888011909558436" cy="-447.0965835052416" r="0.43000000000000016" fill="white" stroke-width="0.8" stroke="black" />
<circle cx="31.863447750481647" cy="-356.3481500222263" r="0.3500000000000001" fill="white" stroke-width="0.8" stroke="black" />
<circle cx="48.85243942510923" cy="-417.67563020632423" r="0.8300000000000001" fill="white" stroke-width="0.8" stroke="black" />
<circle cx="54.42667615299631" cy="-374.09375407830834" r="0.2200000000000002" fill="white" stroke-width="0.8" stroke="black" />
<circle cx="124.74836220372144" cy="-444.207786910567" r="0.5499999999999998" fill="white" stroke-width="0.8" stroke="black" />
<circle cx="136.48314923127913" cy="-447.4492058384803" r="0.94" fill="white" stroke-width="0.8" stroke="black" />
<circle cx="208.99441289562927" cy="-451.4272272514537" r="0.20999999999999996" fill="white" stroke-width="0.8" stroke="black" />
<circle cx="122.19500122269308" cy="-358.10394107937555" r="1.6600000000000001" fill="white" stroke-width="0.8" stroke="black" />
<circle cx="102.04137283439077" cy="-334.9041133032018" r="2.19" fill="white" stroke-width="0.8" stroke="black" />
<circle cx="181.02227824315926" cy="-398.56394941134045" r="1.0" fill="white" stroke-width="0.8" stroke="black" />
<circle cx="247.8576983913104" cy="-426.7368188757456" r="0.5099999999999998" fill="white" stroke-width="0.8" stroke="black" />
<circle cx="85.19111511366108" cy="-293.16129600374654" r="0.18000000000000016" fill="white" stroke-width="0.8" stroke="black" />
<circle cx="197.6928167832662" cy="-355.94609316693055" r="0.31000000000000005" fill="white" stroke-width="0.8" stroke="black" />
<circle cx="172.19319289202375" cy="-332.8921862925267" r="1.5899999999999999" fill="white" stroke-width="0.8" stroke="black" />
<circle cx="166.7118147492229" cy="-307.9816293781536" r="0.6800000000000002" fill="white" stroke-width="0.8" stroke="black" />
<circle cx="104.72244581979844" cy="-266.42532342430417" r="0.1499999999999999" fill="white" stroke-width="0.8" stroke="black" />
<circle cx="189.43847144135506" cy="-280.1298258706731" r="2.24" fill="white" stroke-width="0.8" stroke="black" />
<circle cx="297.02605889467907" cy="-292.75256803376794" r="1.1099999999999999" fill="white" stroke-width="0.8" stroke="black" />
<circle cx="204.4226341227942" cy="-256.01628481705313" r="1.77" fill="white" stroke-width="0.8" stroke="black" />
<circle cx="204.3414070829763" cy="-254.86729892377713" r="0.009999999999999787" fill="white" stroke-width="0.8" stroke="black" />
<circle cx="242.9106065004759" cy="-234.11758058219857" r="2.15" fill="white" stroke-width="0.8" stroke="black" />
<circle cx="431.5854670048523" cy="-176.4390591100464" r="1.3199999999999998" fill="white" stroke-width="0.8" stroke="black" />
<circle cx="153.14426384984492" cy="-223.77884784975285" r="0.33000000000000007" fill="white" stroke-width="0.8" stroke="black" />
<circle cx="422.5748830022229" cy="-143.20724735255394" r="4.05" fill="white" stroke-width="0.8" stroke="black" />
<circle cx="354.1636135836626" cy="-151.03427912116032" r="0.43000000000000016" fill="white" stroke-width="0.8" stroke="black" />
<circle cx="308.32162814838756" cy="-169.7184728375552" r="0.96" fill="white" stroke-width="0.8" stroke="black" />
<circle cx="441.59311806047583" cy="-81.36493564731579" r="0.2200000000000002" fill="white" stroke-width="0.8" stroke="black" />
<circle cx="368.47463928033466" cy="-123.07418211464167" r="1.65" fill="white" stroke-width="0.8" stroke="black" />
<circle cx="496.26546484192767" cy="-18.531708263468296" r="0.27" fill="white" stroke-width="0.8" stroke="black" />
<circle cx="95.21503765262231" cy="-204.1006393973815" r="1.9300000000000002" fill="white" stroke-width="0.8" stroke="black" />
<circle cx="289.20507949445823" cy="-139.74170436491738" r="0.5099999999999998" fill="white" stroke-width="0.8" stroke="black" />
<circle cx="322.1524466111619" cy="-103.00535434262116" r="0.54" fill="white" stroke-width="0.8" stroke="black" />
<circle cx="107.13778847742665" cy="-189.35250788471225" r="1.0" fill="white" stroke-width="0.8" stroke="black" />
<circle cx="179.80154226707242" cy="-163.2091030561895" r="0.71" fill="white" stroke-width="0.8" stroke="black" />
<circle cx="337.16607612519203" cy="-73.25369752892317" r="0.33999999999999986" fill="white" stroke-width="0.8" stroke="black" />
<circle cx="344.5871289141758" cy="-55.62006723098211" r="1.7799999999999998" fill="white" stroke-width="0.8" stroke="black" />
<circle cx="417.24990603643596" cy="15.172223582194333" r="0.20000000000000018" fill="white" stroke-width="0.8" stroke="black" />
<circle cx="341.1653869999966" cy="-44.024885789298644" r="0.18999999999999995" fill="white" stroke-width="0.8" stroke="black" />
<circle cx="424.6540521889993" cy="49.10100988997528" r="1.37" fill="white" stroke-width="0.8" stroke="black" />
<circle cx="386.6659254000215" cy="7.629117273771328" r="0.3500000000000001" fill="white" stroke-width="0.8" stroke="black" />
<circle cx="453.3962976061018" cy="110.58195940891743" r="0.45999999999999996" fill="white" stroke-width="0.8" stroke="black" />
<circle cx="425.08893876521347" cy="68.369998116899" r="0.29000000000000004" fill="white" stroke-width="0.8" stroke="black" />
<circle cx="376.49950330693383" cy="19.89227418490358" r="0.1499999999999999" fill="white" stroke-width="0.8" stroke="black" />
<circle cx="423.56962514851807" cy="144.9974383637562" r="1.27" fill="white" stroke-width="0.8" stroke="black" />
<circle cx="421.13528611756533" cy="155.795690657147" r="0.77" fill="white" stroke-width="0.8" stroke="black" />
<circle cx="224.83996951873698" cy="-82.91208409484835" r="0.08999999999999986" fill="white" stroke-width="0.8" stroke="black" />
<circle cx="338.812498261164" cy="33.91179279323706" r="0.2599999999999998" fill="white" stroke-width="0.8" stroke="black" />
<circle cx="149.7925646892368" cy="-132.39889479565284" r="1.27" fill="white" stroke-width="0.8" stroke="black" />
<circle cx="322.0351129385123" cy="31.98257868718983" r="1.2200000000000002" fill="white" stroke-width="0.8" stroke="black" />
<circle cx="386.4416394923411" cy="132.92640584450066" r="0.18000000000000016" fill="white" stroke-width="0.8" stroke="black" />
<circle cx="409.04576856862303" cy="213.3068045417937" r="1.46" fill="white" stroke-width="0.8" stroke="black" />
<circle cx="273.26662809090266" cy="-3.3876378715975575" r="1.19" fill="white" stroke-width="0.8" stroke="black" />
<circle cx="242.58356583151308" cy="-33.86045737276086" r="0.52" fill="white" stroke-width="0.8" stroke="black" />
<circle cx="332.04388216976514" cy="122.12427815759344" r="0.81" fill="white" stroke-width="0.8" stroke="black" />
<circle cx="259.2107493153427" cy="17.063468572232154" r="0.08000000000000007" fill="white" stroke-width="0.8" stroke="black" />
<circle cx="113.93801509657465" cy="-124.78899906065321" r="0.8300000000000001" fill="white" stroke-width="0.8" stroke="black" />
<circle cx="367.796449576229" cy="279.1637177419433" r="1.5699999999999998" fill="white" stroke-width="0.8" stroke="black" />
<circle cx="297.2221089645341" cy="112.18107481462805" r="1.2200000000000002" fill="white" stroke-width="0.8" stroke="black" />
<circle cx="265.4568411181163" cy="59.317103805445065" r="0.8799999999999999" fill="white" stroke-width="0.8" stroke="black" />
<circle cx="225.15401281840363" cy="1.845555309409374" r="0.8399999999999999" fill="white" stroke-width="0.8" stroke="black" />
<circle cx="357.8439053036254" cy="347.74899597668457" r="0.73" fill="white" stroke-width="0.8" stroke="black" />
<circle cx="157.35225866978377" cy="-58.171518702044466" r="1.21" fill="white" stroke-width="0.8" stroke="black" />
<circle cx="276.93912753675096" cy="139.7575823671308" r="1.92" fill="white" stroke-width="0.8" stroke="black" />
<circle cx="324.48550745515655" cy="300.7408637606393" r="0.45999999999999996" fill="white" stroke-width="0.8" stroke="black" />
<circle cx="173.371128202761" cy="-24.130805909681417" r="0.18000000000000016" fill="white" stroke-width="0.8" stroke="black" />
<circle cx="283.4845181651375" cy="190.31462953573325" r="1.2400000000000002" fill="white" stroke-width="0.8" stroke="black" />
<circle cx="223.51931381077307" cy="69.86617932823611" r="0.5800000000000001" fill="white" stroke-width="0.8" stroke="black" />
<circle cx="280.90864482304937" cy="204.21212228796966" r="0.25" fill="white" stroke-width="0.8" stroke="black" />
<circle cx="126.64779251955035" cy="-67.04835408021128" r="0.27" fill="white" stroke-width="0.8" stroke="black" />
<circle cx="186.51948465780015" cy="28.569573122730016" r="0.14000000000000012" fill="white" stroke-width="0.8" stroke="black" />
<circle cx="142.56102725259066" cy="-40.383500093430214" r="1.7599999999999998" fill="white" stroke-width="0.8" stroke="black" />
<circle cx="207.16678966579263" cy="69.94490561198913" r="0.2999999999999998" fill="white" stroke-width="0.8" stroke="black" />
<circle cx="283.8156690781311" cy="283.8573876217435" r="0.6800000000000002" fill="white" stroke-width="0.8" stroke="black" />
<circle cx="262.1614022301532" cy="212.6941494141901" r="0.06999999999999984" fill="white" stroke-width="0.8" stroke="black" />
<circle cx="240.46353375416362" cy="180.87557251813254" r="0.29000000000000004" fill="white" stroke-width="0.8" stroke="black" />
<circle cx="197.75184302233933" cy="78.82856049577123" r="0.16000000000000014" fill="white" stroke-width="0.8" stroke="black" />
<circle cx="269.9249660194779" cy="360.279810993316" r="0.16000000000000014" fill="white" stroke-width="0.8" stroke="black" />
<circle cx="260.1293192020596" cy="417.2235335543584" r="1.2799999999999998" fill="white" stroke-width="0.8" stroke="black" />
<circle cx="60.26403255343234" cy="-131.1252814917022" r="0.4500000000000002" fill="white" stroke-width="0.8" stroke="black" />
<circle cx="240.2582385468724" cy="259.6535756997301" r="0.77" fill="white" stroke-width="0.8" stroke="black" />
<circle cx="194.68854357983778" cy="125.62858647747926" r="0.1499999999999999" fill="white" stroke-width="0.8" stroke="black" />
<circle cx="247.70494829840254" cy="394.43223844580245" r="1.1800000000000002" fill="white" stroke-width="0.8" stroke="black" />
<circle cx="224.52871066973486" cy="298.38237791654365" r="0.1499999999999999" fill="white" stroke-width="0.8" stroke="black" />
<circle cx="143.0357065990467" cy="43.117253738164784" r="3.97" fill="white" stroke-width="0.8" stroke="black" />
<circle cx="217.81643687506897" cy="412.41333648578654" r="0.8300000000000001" fill="white" stroke-width="0.8" stroke="black" />
<circle cx="140.60164147327907" cy="77.76333871612465" r="0.48" fill="white" stroke-width="0.8" stroke="black" />
<circle cx="201.25497886774863" cy="412.549180835294" r="1.9500000000000002" fill="white" stroke-width="0.8" stroke="black" />
<circle cx="195.74758193292416" cy="383.5095978555426" r="0.48" fill="white" stroke-width="0.8" stroke="black" />
<circle cx="131.98716702149164" cy="85.22647829463064" r="0.75" fill="white" stroke-width="0.8" stroke="black" />
<circle cx="188.79648272317408" cy="436.34528212913403" r="1.4" fill="white" stroke-width="0.8" stroke="black" />
<circle cx="184.09939113032405" cy="390.07151894195823" r="0.2400000000000002" fill="white" stroke-width="0.8" stroke="black" />
<circle cx="152.70827717028186" cy="190.29261926311003" r="1.0099999999999998" fill="white" stroke-width="0.8" stroke="black" />
<circle cx="171.62119461632335" cy="294.9048145725446" r="0.5699999999999998" fill="white" stroke-width="0.8" stroke="black" />
<circle cx="181.3137079887165" cy="425.14428167438194" r="0.6800000000000002" fill="white" stroke-width="0.8" stroke="black" />
<circle cx="175.20461673568582" cy="387.95283083700946" r="1.12" fill="white" stroke-width="0.8" stroke="black" />
<circle cx="52.17538059376704" cy="-94.9816489907057" r="0.9300000000000002" fill="white" stroke-width="0.8" stroke="black" />
<circle cx="77.32614742381311" cy="-18.72812474473071" r="0.20000000000000018" fill="white" stroke-width="0.8" stroke="black" />
<circle cx="153.82619084497196" cy="374.2173958690586" r="0.08000000000000007" fill="white" stroke-width="0.8" stroke="black" />
<circle cx="134.5205214728117" cy="257.85741737288924" r="0.6400000000000001" fill="white" stroke-width="0.8" stroke="black" />
<circle cx="69.92706893014328" cy="-6.7554887467334" r="0.2400000000000002" fill="white" stroke-width="0.8" stroke="black" />
<circle cx="101.5545908864688" cy="122.56150941340067" r="0.9500000000000002" fill="white" stroke-width="0.8" stroke="black" />
<circle cx="65.28729404971723" cy="32.535049051144846" r="1.1400000000000001" fill="white" stroke-width="0.8" stroke="black" />
<circle cx="97.19858008964648" cy="222.7578262008234" r="1.2799999999999998" fill="white" stroke-width="0.8" stroke="black" />
<circle cx="89.34402062167048" cy="179.2146074458026" r="0.31999999999999984" fill="white" stroke-width="0.8" stroke="black" />
<circle cx="30.457261963257153" cy="-103.45851615574355" r="0.16000000000000014" fill="white" stroke-width="0.8" stroke="black" />
<circle cx="91.68330630737533" cy="233.6058063413774" r="3.24" fill="white" stroke-width="0.8" stroke="black" />
<circle cx="93.8546809785133" cy="277.7333617476943" r="0.1299999999999999" fill="white" stroke-width="0.8" stroke="black" />
<circle cx="86.39794846679091" cy="248.39926575570297" r="0.29000000000000004" fill="white" stroke-width="0.8" stroke="black" />
<circle cx="63.77251613344029" cy="90.01988222214963" r="0.10999999999999988" fill="white" stroke-width="0.8" stroke="black" />
<circle cx="72.99834483531329" cy="176.6032700439088" r="0.4900000000000002" fill="white" stroke-width="0.8" stroke="black" />
<circle cx="64.68161890611898" cy="291.748503724934" r="0.7599999999999998" fill="white" stroke-width="0.8" stroke="black" />
<circle cx="36.4649548426458" cy="28.514325524585907" r="0.20000000000000018" fill="white" stroke-width="0.8" stroke="black" />
<circle cx="34.08827229132992" cy="23.354550432846764" r="0.040000000000000036" fill="white" stroke-width="0.8" stroke="black" />
<circle cx="56.58180825659702" cy="357.9966261121272" r="0.41999999999999993" fill="white" stroke-width="0.8" stroke="black" />
<circle cx="51.91525510213562" cy="370.8151834490164" r="0.9500000000000002" fill="white" stroke-width="0.8" stroke="black" />
<circle cx="31.630739110269012" cy="65.34330530187138" r="1.77" fill="white" stroke-width="0.8" stroke="black" />
<circle cx="20.387384982729245" cy="208.99205204048187" r="0.3599999999999999" fill="white" stroke-width="0.8" stroke="black" />
<circle cx="17.188336925838744" cy="201.78135683559012" r="0.22999999999999998" fill="white" stroke-width="0.8" stroke="black" />
<circle cx="10.312552057245192" cy="38.738223896736514" r="2.75" fill="white" stroke-width="0.8" stroke="black" />
<circle cx="4.622715042508981" cy="-53.17028011467777" r="0.5899999999999999" fill="white" stroke-width="0.8" stroke="black" />
<circle cx="6.5593583926463115" cy="101.67065046921999" r="1.52" fill="white" stroke-width="0.8" stroke="black" />
<circle cx="6.379069439072659" cy="343.1803386766828" r="0.2200000000000002" fill="white" stroke-width="0.8" stroke="black" />
<circle cx="-5.544355117220533" cy="61.684464095522834" r="0.06000000000000005" fill="white" stroke-width="0.8" stroke="black" />
<circle cx="-13.036226386457198" cy="46.09347103985155" r="0.2799999999999998" fill="white" stroke-width="0.8" stroke="black" />
<circle cx="-26.003197321252394" cy="121.61885617208601" r="0.79" fill="white" stroke-width="0.8" stroke="black" />
<circle cx="-25.317655833377735" cy="78.07744052890772" r="0.2599999999999998" fill="white" stroke-width="0.8" stroke="black" />
<circle cx="-37.58599326797926" cy="260.013210119987" r="0.08000000000000007" fill="white" stroke-width="0.8" stroke="black" />
<circle cx="-16.846081625188727" cy="-58.11543137010487" r="1.5499999999999998" fill="white" stroke-width="0.8" stroke="black" />
<circle cx="-61.18701821809738" cy="412.5578696721807" r="0.22999999999999998" fill="white" stroke-width="0.8" stroke="black" />
<circle cx="-16.83831693390431" cy="-102.78041277147226" r="0.77" fill="white" stroke-width="0.8" stroke="black" />
<circle cx="-65.93911181193926" cy="318.0119841505984" r="1.1" fill="white" stroke-width="0.8" stroke="black" />
<circle cx="-40.790028574461694" cy="34.18475380425417" r="0.020000000000000018" fill="white" stroke-width="0.8" stroke="black" />
<circle cx="-83.37862451328667" cy="378.2965268819806" r="0.31000000000000005" fill="white" stroke-width="0.8" stroke="black" />
<circle cx="-78.71185138824484" cy="229.71052304591464" r="1.62" fill="white" stroke-width="0.8" stroke="black" />
<circle cx="-95.11066204901756" cy="373.885745349692" r="1.15" fill="white" stroke-width="0.8" stroke="black" />
<circle cx="-118.60231509230564" cy="280.57759285827865" r="1.0499999999999998" fill="white" stroke-width="0.8" stroke="black" />
<circle cx="-97.29958611430634" cy="138.27489702704014" r="0.22999999999999998" fill="white" stroke-width="0.8" stroke="black" />
<circle cx="-120.47820224228667" cy="242.90774366517948" r="0.48" fill="white" stroke-width="0.8" stroke="black" />
<circle cx="-56.86598710553219" cy="-41.09230254281303" r="0.6099999999999999" fill="white" stroke-width="0.8" stroke="black" />
<circle cx="-144.53033459850542" cy="281.0405061916423" r="0.14000000000000012" fill="white" stroke-width="0.8" stroke="black" />
<circle cx="-154.64836493249334" cy="270.5715667379529" r="0.3500000000000001" fill="white" stroke-width="0.8" stroke="black" />
<circle cx="-86.38225003681194" cy="-4.044803899691047" r="0.2400000000000002" fill="white" stroke-width="0.8" stroke="black" />
<circle cx="-161.66120985935464" cy="204.83915897699757" r="0.5899999999999999" fill="white" stroke-width="0.8" stroke="black" />
<circle cx="-134.3181320885167" cy="98.62971541941248" r="1.0699999999999998" fill="white" stroke-width="0.8" stroke="black" />
<circle cx="-149.78172303423332" cy="132.93916951196377" r="0.029999999999999805" fill="white" stroke-width="0.8" stroke="black" />
<circle cx="-64.10632468340589" cy="-91.71821657863337" r="0.5" fill="white" stroke-width="0.8" stroke="black" />
<circle cx="-152.38155550089965" cy="125.71980372037973" r="0.4900000000000002" fill="white" stroke-width="0.8" stroke="black" />
<circle cx="-199.38425996041707" cy="302.1205382008978" r="0.27" fill="white" stroke-width="0.8" stroke="black" />
<circle cx="-209.13633874374372" cy="348.1014248540198" r="0.73" fill="white" stroke-width="0.8" stroke="black" />
<circle cx="-219.00311965237634" cy="427.0673830256829" r="2.83" fill="white" stroke-width="0.8" stroke="black" />
<circle cx="-130.1298819824677" cy="26.328323730211828" r="0.3799999999999999" fill="white" stroke-width="0.8" stroke="black" />
<circle cx="-162.49696974323467" cy="100.24592801196441" r="1.56" fill="white" stroke-width="0.8" stroke="black" />
<circle cx="-187.56649597079146" cy="168.9847187659098" r="1.5099999999999998" fill="white" stroke-width="0.8" stroke="black" />
<circle cx="-236.97185781257667" cy="371.5206660896602" r="0.31999999999999984" fill="white" stroke-width="0.8" stroke="black" />
<circle cx="-224.37078157056425" cy="227.1859111904281" r="0.2999999999999998" fill="white" stroke-width="0.8" stroke="black" />
<circle cx="-259.0724156112618" cy="357.5707552813822" r="0.040000000000000036" fill="white" stroke-width="0.8" stroke="black" />
<circle cx="-150.49142481878923" cy="-11.849596847598923" r="0.18999999999999995" fill="white" stroke-width="0.8" stroke="black" />
<circle cx="-47.06113369604807" cy="-157.0150466248846" r="0.79" fill="white" stroke-width="0.8" stroke="black" />
<circle cx="-177.38525253123004" cy="314.46882286454553" r="1" fill="darkred" stroke-width="1" stroke="darkred" />
<text x="-177.38525253123004" y="314.46882286454553" font-size="12" fill="black">☉</text>
<text x="-500" y="-500.0" font-size="12" fill="black">☾ 21:38</text>
<circle cx="-178.59731339002192" cy="326.1528545429135" r="1" fill="darkred" stroke-width="1" stroke="darkred" />
<text x="-178.59731339002192" y="326.1528545429135" font-size="12" fill="black">☿</text>
<circle cx="-18.95899446615672" cy="387.3890866272776" r="1" fill="darkred" stroke-width="1" stroke="darkred" />
<text x="-18.95899446615672" y="387.3890866272776" font-size="12" fill="black">♀</text>
<circle cx="-3.3513280341397422" cy="393.69115695648026" r="1" fill="darkred" stroke-width="1" stroke="darkred" />
<text x="-3.3513280341397422" y="393.69115695648026" font-size="12" fill="black">♂</text>
<circle cx="-420.9415208543177" cy="-39.42016125166908" r="1" fill="darkred" stroke-width="1" stroke="darkred" />
<text x="-420.9415208543177" y="-39.42016125166908" font-size="12" fill="black">♃</text>
<circle cx="-190.1465928664038" cy="316.83632590813335" r="1" fill="darkred" stroke-width="1" stroke="darkred" />
<text x="-190.1465928664038" y="316.83632590813335" font-size="12" fill="black">♄</text>
<circle cx="-424.6310441123383" cy="-104.33066563714371" r="1" fill="darkred" stroke-width="1" stroke="darkred" />
<text x="-424.6310441123383" y="-104.33066563714371" font-size="12" fill="black">⛢</text>
<circle cx="-280.0770375586133" cy="238.4566291225965" r="1" fill="darkred" stroke-width="1" stroke="darkred" />
<text x="-280.0770375586133" y="238.4566291225965" font-size="12" fill="black">♆</text>
</svg>