<?xml version="1.0" encoding="UTF-8"?>
<svg xmlns="http://www.w3.org/2000/svg" xmlns:xlink="http://www.w3.org/1999/xlink"
     width="1050" height="1050" viewBox="-525.0 -525.0 1050 1050" displayInline="False">
<defs>
</defs>
<circle cx="0" cy="0" r="500" fill="lightgrey" stroke-width="2" stroke="black" />
<circle cx="62.16233037094132" cy="-369.57033039422373" r="1.7200000000000002" fill="white" stroke-width="0.8" stroke="black" />
<circle cx="101.84385623068151" cy="-384.93241642421515" r="0.31000000000000005" fill="white" stroke-width="0.8" stroke="black" />
<circle cx="96.43539047345753" cy="-370.9705515820515" r="1.7599999999999998" fill="white" stroke-width="0.8" stroke="black" />
<circle cx="99.35465838876821" cy="-361.2147306203318" r="0.54" fill="white" stroke-width="0.8" stroke="black" />
<circle cx="94.78474882414362" cy="-344.8338145143753" r="1.85" fill="white" stroke-width="0.8" stroke="black" />
<circle cx="182.48283183863882" cy="-438.43559910463244" r="0.14000000000000012" fill="white" stroke-width="0.8" stroke="black" />
<circle cx="212.60625777976097" cy="-436.5418674032634" r="1.9300000000000002" fill="white" stroke-width="0.8" stroke="black" />
<circle cx="116.45793205411483" cy="-332.97300077028297" r="1.3399999999999999" fill="white" stroke-width="0.8" stroke="black" />
<circle cx="179.22914175024263" cy="-366.2345369289326" r="0.41000000000000014" fill="white" stroke-width="0.8" stroke="black" />
<circle cx="297.3341446123477" cy="-399.04927197167456" r="0.5800000000000001" fill="white" stroke-width="0.8" stroke="black" />
<circle cx="116.98437277601522" cy="-305.73116997547504" r="0.6499999999999999" fill="white" stroke-width="0.8" stroke="black" />
<circle cx="78.98207362752518" cy="-272.34456726447405" r="0.04999999999999982" fill="white" stroke-width="0.8" stroke="black" />
<circle cx="234.05595497842765" cy="-358.96798181560035" r="1.9" fill="white" stroke-width="0.8" stroke="black" />
<circle cx="281.14798956678123" cy="-366.82512713846666" r="1.0" fill="white" stroke-width="0.8" stroke="black" />
<circle cx="3.263051762395384" cy="-210.77746748186743" r="2.0300000000000002" fill="white" stroke-width="0.8" stroke="black" />
<circle cx="358.56421501218773" cy="-313.5954513930068" r="0.3900000000000001" fill="white" stroke-width="0.8" stroke="black" />
<circle cx="184.4276294239605" cy="-288.3530736123807" r="0.22999999999999998" fill="white" stroke-width="0.8" stroke="black" />
<circle cx="204.14440250008937" cy="-290.12627619707695" r="0.06999999999999984" fill="white" stroke-width="0.8" stroke="black" />
<circle cx="203.83175028223255" cy="-279.86191666700074" r="1.0899999999999999" fill="white" stroke-width="0.8" stroke="black" />
<circle cx="293.066196956472" cy="-290.35133050043004" r="0.6800000000000002" fill="white" stroke-width="0.8" stroke="black" />
<circle cx="281.1937260770935" cy="-285.91960344059584" r="1.9100000000000001" fill="white" stroke-width="0.8" stroke="black" />
<circle cx="257.7351054268703" cy="-282.5968753917335" r="0.20999999999999996" fill="white" stroke-width="0.8" stroke="black" />
<circle cx="232.08978682297007" cy="-264.49540702526417" r="2.21" fill="white" stroke-width="0.8" stroke="black" />
<circle cx="249.16282808039648" cy="-245.77704196675728" r="0.9900000000000002" fill="white" stroke-width="0.8" stroke="black" />
<circle cx="345.1431794234144" cy="-233.5064406195957" r="0.16000000000000014" fill="white" stroke-width="0.8" stroke="black" />
<circle cx="395.99676655314386" cy="-219.9921925086242" r="0.2799999999999998" fill="white" stroke-width="0.8" stroke="black" />
<circle cx="281.5886575715432" cy="-241.3772622227231" r="0.22999999999999998" fill="white" stroke-width="0.8" stroke="black" />
<circle cx="394.4847610808106" cy="-218.90242257427212" r="0.1299999999999999" fill="white" stroke-width="0.8" stroke="black" />
<circle cx="396.2100159389935" cy="-215.66722505036347" r="1.15" fill="white" stroke-width="0.8" stroke="black" />
<circle cx="396.6045352715602" cy="-212.80023821038458" r="0.3799999999999999" fill="white" stroke-width="0.8" stroke="black" />
<circle cx="348.6107795711793" cy="-218.7333827933402" r="1.1600000000000001" fill="white" stroke-width="0.8" stroke="black" />
<circle cx="298.9901212062829" cy="-223.97712780693485" r="1.1" fill="white" stroke-width="0.8" stroke="black" />
<circle cx="324.91482793442174" cy="-217.53257187640475" r="0.020000000000000018" fill="white" stroke-width="0.8" stroke="black" />
<circle cx="465.81051378282217" cy="-161.93176234064705" r="0.5899999999999999" fill="white" stroke-width="0.8" stroke="black" />
<circle cx="252.75206483797874" cy="-218.79463847985286" r="0.040000000000000036" fill="white" stroke-width="0.8" stroke="black" />
<circle cx="442.78970037509663" cy="-138.03151098594276" r="0.3500000000000001" fill="white" stroke-width="0.8" stroke="black" />
<circle cx="430.9380932238814" cy="-139.0209958682964" r="0.22999999999999998" fill="white" stroke-width="0.8" stroke="black" />
<circle cx="437.95552700310174" cy="-124.13676946251965" r="0.16000000000000014" fill="white" stroke-width="0.8" stroke="black" />
<circle cx="419.8874180448873" cy="-134.90612741910329" r="0.4700000000000002" fill="white" stroke-width="0.8" stroke="black" />
<circle cx="438.4324078197038" cy="-123.6679687644943" r="0.6000000000000001" fill="white" stroke-width="0.8" stroke="black" />
<circle cx="432.0895313459783" cy="-113.77423093218243" r="3.13" fill="white" stroke-width="0.8" stroke="black" />
<circle cx="474.4548770150601" cy="-51.14637462870768" r="0.81" fill="white" stroke-width="0.8" stroke="black" />
<circle cx="480.1624140249176" cy="-42.491968548934594" r="0.31999999999999984" fill="white" stroke-width="0.8" stroke="black" />
<circle cx="492.9358707270306" cy="-21.742570617073213" r="0.29000000000000004" fill="white" stroke-width="0.8" stroke="black" />
<circle cx="332.36437208443186" cy="-135.1782389678765" r="1.31" fill="white" stroke-width="0.8" stroke="black" />
<circle cx="271.05605744735453" cy="-156.16338659072983" r="0.9700000000000002" fill="white" stroke-width="0.8" stroke="black" />
<circle cx="286.47212589108955" cy="-149.15136931323914" r="0.31000000000000005" fill="white" stroke-width="0.8" stroke="black" />
<circle cx="284.4862605302608" cy="-145.04135334316408" r="0.8199999999999998" fill="white" stroke-width="0.8" stroke="black" />
<circle cx="255.0936182657848" cy="-146.13428804994118" r="3.92" fill="white" stroke-width="0.8" stroke="black" />
<circle cx="486.17750923221274" cy="54.68377438392095" r="0.6499999999999999" fill="white" stroke-width="0.8" stroke="black" />
<circle cx="450.0123502629058" cy="9.433571853285313" r="2.3600000000000003" fill="white" stroke-width="0.8" stroke="black" />
<circle cx="344.06663803233977" cy="-82.98380248655623" r="2.35" fill="white" stroke-width="0.8" stroke="black" />
<circle cx="470.4522006402877" cy="54.826984572843585" r="1.75" fill="white" stroke-width="0.8" stroke="black" />
<circle cx="425.8881017939706" cy="7.021251613498318" r="0.6099999999999999" fill="white" stroke-width="0.8" stroke="black" />
<circle cx="487.00578602975736" cy="92.16845231002631" r="1.25" fill="white" stroke-width="0.8" stroke="black" />
<circle cx="469.4530590421437" cy="66.27412495316808" r="2.31" fill="white" stroke-width="0.8" stroke="black" />
<circle cx="373.5047779477334" cy="-39.384762651921974" r="1.0299999999999998" fill="white" stroke-width="0.8" stroke="black" />
<circle cx="471.7924992537435" cy="77.98914736418946" r="0.22999999999999998" fill="white" stroke-width="0.8" stroke="black" />
<circle cx="467.2463518900427" cy="77.29427894780558" r="2.26" fill="white" stroke-width="0.8" stroke="black" />
<circle cx="277.7227062889855" cy="-90.45184946230005" r="0.029999999999999805" fill="white" stroke-width="0.8" stroke="black" />
<circle cx="417.37304265181785" cy="48.054804939067644" r="3.55" fill="white" stroke-width="0.8" stroke="black" />
<circle cx="196.87280521451726" cy="-130.8499900233956" r="0.2799999999999998" fill="white" stroke-width="0.8" stroke="black" />
<circle cx="244.7502680620421" cy="-102.0022529336974" r="2.1" fill="white" stroke-width="0.8" stroke="black" />
<circle cx="282.811372836756" cy="-75.07379938255856" r="1.35" fill="white" stroke-width="0.8" stroke="black" />
<circle cx="440.13485117386574" cy="150.30621296086943" r="0.009999999999999787" fill="white" stroke-width="0.8" stroke="black" />
<circle cx="338.4164908003514" cy="1.4495739416440954" r="0.69" fill="white" stroke-width="0.8" stroke="black" />
<circle cx="331.38385080332137" cy="10.753419922188368" r="1.13" fill="white" stroke-width="0.8" stroke="black" />
<circle cx="423.71468226543425" cy="172.52192302531876" r="0.2400000000000002" fill="white" stroke-width="0.8" stroke="black" />
<circle cx="340.55186307473224" cy="56.40041934567883" r="2.0700000000000003" fill="white" stroke-width="0.8" stroke="black" />
<circle cx="302.22469586759814" cy="21.424575648101015" r="0.94" fill="white" stroke-width="0.8" stroke="black" />
<circle cx="420.41554811457564" cy="251.53674393285482" r="5.4399999999999995" fill="white" stroke-width="0.8" stroke="black" />
<circle cx="344.5303344505957" cy="82.39592864680728" r="0.6499999999999999" fill="white" stroke-width="0.8" stroke="black" />
<circle cx="260.31494879167707" cy="-9.934105244506076" r="0.3999999999999999" fill="white" stroke-width="0.8" stroke="black" />
<circle cx="295.8642718453328" cy="97.28493248832744" r="0.41999999999999993" fill="white" stroke-width="0.8" stroke="black" />
<circle cx="276.9480547814464" cy="71.57578450092387" r="0.5" fill="white" stroke-width="0.8" stroke="black" />
<circle cx="252.54761666512906" cy="47.72458341100926" r="0.2200000000000002" fill="white" stroke-width="0.8" stroke="black" />
<circle cx="307.477586939933" cy="149.2416493878193" r="1.1099999999999999" fill="white" stroke-width="0.8" stroke="black" />
<circle cx="230.58471837515035" cy="34.98278504173876" r="2.42" fill="white" stroke-width="0.8" stroke="black" />
<circle cx="298.6607100107356" cy="176.9092395699833" r="3.6" fill="white" stroke-width="0.8" stroke="black" />
<circle cx="323.7407766066511" cy="262.5638685288098" r="0.06000000000000005" fill="white" stroke-width="0.8" stroke="black" />
<circle cx="243.16011352501744" cy="79.91535649567196" r="0.43000000000000016" fill="white" stroke-width="0.8" stroke="black" />
<circle cx="231.7299592809754" cy="62.26563987988072" r="2.84" fill="white" stroke-width="0.8" stroke="black" />
<circle cx="326.49005092256334" cy="361.8050186601498" r="0.6600000000000001" fill="white" stroke-width="0.8" stroke="black" />
<circle cx="295.80203900627043" cy="371.1238360177046" r="1.17" fill="white" stroke-width="0.8" stroke="black" />
<circle cx="239.2581474028047" cy="184.42672993491772" r="0.4700000000000002" fill="white" stroke-width="0.8" stroke="black" />
<circle cx="247.14419695822042" cy="263.5802352642448" r="0.08999999999999986" fill="white" stroke-width="0.8" stroke="black" />
<circle cx="96.38257996011221" cy="-72.48492131923712" r="0.6499999999999999" fill="white" stroke-width="0.8" stroke="black" />
<circle cx="184.6299776062033" cy="153.42056594467977" r="0.06000000000000005" fill="white" stroke-width="0.8" stroke="black" />
<circle cx="200.83394858884702" cy="218.7804550040381" r="0.6200000000000001" fill="white" stroke-width="0.8" stroke="black" />
<circle cx="188.82624397330085" cy="226.11693581271925" r="0.8900000000000001" fill="white" stroke-width="0.8" stroke="black" />
<circle cx="108.46846244687387" cy="2.0708759375177253" r="0.8799999999999999" fill="white" stroke-width="0.8" stroke="black" />
<circle cx="120.49936001292026" cy="35.35952985029821" r="0.040000000000000036" fill="white" stroke-width="0.8" stroke="black" />
<circle cx="106.5433704852325" cy="8.331257676953259" r="0.43000000000000016" fill="white" stroke-width="0.8" stroke="black" />
<circle cx="164.5385581672967" cy="255.5511141073322" r="0.10999999999999988" fill="white" stroke-width="0.8" stroke="black" />
<circle cx="111.20396782285349" cy="68.87774205769468" r="0.18000000000000016" fill="white" stroke-width="0.8" stroke="black" />
<circle cx="112.71067966386806" cy="82.648256651457" r="0.8599999999999999" fill="white" stroke-width="0.8" stroke="black" />
<circle cx="152.72784903829634" cy="322.440457816046" r="2.01" fill="white" stroke-width="0.8" stroke="black" />
<circle cx="54.37799996872411" cy="-67.4915478267858" r="0.3500000000000001" fill="white" stroke-width="0.8" stroke="black" />
<circle cx="73.2521103749315" cy="-6.521642400994553" r="0.8300000000000001" fill="white" stroke-width="0.8" stroke="black" />
<circle cx="127.69405573798625" cy="284.7590216750876" r="0.10000000000000009" fill="white" stroke-width="0.8" stroke="black" />
<circle cx="116.77533583098766" cy="223.86678741958855" r="0.48" fill="white" stroke-width="0.8" stroke="black" />
<circle cx="96.67548725523174" cy="148.76315817659804" r="1.0299999999999998" fill="white" stroke-width="0.8" stroke="black" />
<circle cx="48.26951382226565" cy="-42.280780200723214" r="0.2200000000000002" fill="white" stroke-width="0.8" stroke="black" />
<circle cx="85.54858161417035" cy="138.4138615786673" r="0.1200000000000001" fill="white" stroke-width="0.8" stroke="black" />
<circle cx="73.58221231492234" cy="192.9570129935029" r="0.52" fill="white" stroke-width="0.8" stroke="black" />
<circle cx="75.15894346251353" cy="219.75045304928318" r="2.6399999999999997" fill="white" stroke-width="0.8" stroke="black" />
<circle cx="82.6828192068136" cy="355.5111187509894" r="0.3900000000000001" fill="white" stroke-width="0.8" stroke="black" />
<circle cx="56.554984885070716" cy="157.9224444492409" r="0.5699999999999998" fill="white" stroke-width="0.8" stroke="black" />
<circle cx="42.90124710130847" cy="50.22667628223734" r="0.5499999999999998" fill="white" stroke-width="0.8" stroke="black" />
<circle cx="54.150814559729255" cy="178.28415813717197" r="1.9900000000000002" fill="white" stroke-width="0.8" stroke="black" />
<circle cx="38.512614559364636" cy="58.74863192439636" r="0.94" fill="white" stroke-width="0.8" stroke="black" />
<circle cx="57.244761597146265" cy="383.0416207226884" r="0.16999999999999993" fill="white" stroke-width="0.8" stroke="black" />
<circle cx="40.00140343612885" cy="238.49569986257376" r="0.16000000000000014" fill="white" stroke-width="0.8" stroke="black" />
<circle cx="16.768444708435535" cy="381.4611050630416" r="0.8900000000000001" fill="white" stroke-width="0.8" stroke="black" />
<circle cx="6.925101368724695" cy="101.542829382501" r="0.20999999999999996" fill="white" stroke-width="0.8" stroke="black" />
<circle cx="-2.110326595077649" cy="-21.566437068779546" r="1.6600000000000001" fill="white" stroke-width="0.8" stroke="black" />
<circle cx="-3.0884387403006075" cy="-51.40488638139779" r="2.19" fill="white" stroke-width="0.8" stroke="black" />
<circle cx="-10.40397618877749" cy="44.29808189820369" r="1.0" fill="white" stroke-width="0.8" stroke="black" />
<circle cx="-20.311619841289705" cy="177.24383661590915" r="1.44" fill="white" stroke-width="0.8" stroke="black" />
<circle cx="-21.451038532991188" cy="205.52940711711568" r="0.6699999999999999" fill="white" stroke-width="0.8" stroke="black" />
<circle cx="-22.79951289611422" cy="107.15379619100547" r="0.5099999999999998" fill="white" stroke-width="0.8" stroke="black" />
<circle cx="-34.09294343134911" cy="373.0264839081954" r="0.43999999999999995" fill="white" stroke-width="0.8" stroke="black" />
<circle cx="-36.78380876180071" cy="231.95953181793823" r="0.0" fill="white" stroke-width="0.8" stroke="black" />
<circle cx="-16.121975312629786" cy="-94.44090408776869" r="0.18000000000000016" fill="white" stroke-width="0.8" stroke="black" />
<circle cx="-58.53984973021957" cy="466.832762228922" r="0.45999999999999996" fill="white" stroke-width="0.8" stroke="black" />
<circle cx="-43.622259569237656" cy="22.810157251707913" r="0.31000000000000005" fill="white" stroke-width="0.8" stroke="black" />
<circle cx="-71.8099955808258" cy="205.66658201067122" r="1.8599999999999999" fill="white" stroke-width="0.8" stroke="black" />
<circle cx="-81.38895339392954" cy="276.4249077844532" r="0.41000000000000014" fill="white" stroke-width="0.8" stroke="black" />
<circle cx="-44.72622862287323" cy="-10.847357315500433" r="1.5899999999999999" fill="white" stroke-width="0.8" stroke="black" />
<circle cx="-122.72763367713614" cy="408.0803372475324" r="0.98" fill="white" stroke-width="0.8" stroke="black" />
<circle cx="-57.05083736201515" cy="-32.85331871086054" r="0.6800000000000002" fill="white" stroke-width="0.8" stroke="black" />
<circle cx="-131.21853374923387" cy="377.842435936129" r="1.42" fill="white" stroke-width="0.8" stroke="black" />
<circle cx="-129.037695242946" cy="281.8978483259669" r="0.10999999999999988" fill="white" stroke-width="0.8" stroke="black" />
<circle cx="-154.7579605667188" cy="367.44202866629684" r="1.06" fill="white" stroke-width="0.8" stroke="black" />
<circle cx="-45.07549041988042" cy="-104.00661814043978" r="0.1499999999999999" fill="white" stroke-width="0.8" stroke="black" />
<circle cx="-164.74077224045942" cy="404.9721650473364" r="1.35" fill="white" stroke-width="0.8" stroke="black" />
<circle cx="-164.05074288614628" cy="277.9173929427066" r="1.2599999999999998" fill="white" stroke-width="0.8" stroke="black" />
<circle cx="-86.95408343432138" cy="-37.03146741365568" r="2.24" fill="white" stroke-width="0.8" stroke="black" />
<circle cx="-180.55781973405067" cy="244.4250168428257" r="0.6099999999999999" fill="white" stroke-width="0.8" stroke="black" />
<circle cx="-125.70381324409281" cy="54.60268938856684" r="1.1099999999999999" fill="white" stroke-width="0.8" stroke="black" />
<circle cx="-180.27258730270617" cy="199.25145003014308" r="1.15" fill="white" stroke-width="0.8" stroke="black" />
<circle cx="-240.81730589928017" cy="383.9238147112923" r="1.0099999999999998" fill="white" stroke-width="0.8" stroke="black" />
<circle cx="-110.61667315965838" cy="-42.307712556392005" r="1.77" fill="white" stroke-width="0.8" stroke="black" />
<circle cx="-243.07109455016663" cy="310.3003605103166" r="3.02" fill="white" stroke-width="0.8" stroke="black" />
<circle cx="-111.3420102234246" cy="-43.13326570144033" r="0.009999999999999787" fill="white" stroke-width="0.8" stroke="black" />
<circle cx="-245.03654072783485" cy="244.08737573401726" r="0.6200000000000001" fill="white" stroke-width="0.8" stroke="black" />
<circle cx="-144.18832697941664" cy="-25.491970037925217" r="2.15" fill="white" stroke-width="0.8" stroke="black" />
<circle cx="-236.1298721917185" cy="126.17523644930893" r="1.3199999999999998" fill="white" stroke-width="0.8" stroke="black" />
<circle cx="-103.23080723400659" cy="-102.69641360699106" r="0.33000000000000007" fill="white" stroke-width="0.8" stroke="black" />
<circle cx="-322.01171658805254" cy="375.83282954696676" r="0.75" fill="white" stroke-width="0.8" stroke="black" />
<circle cx="-259.4790702938234" cy="105.92744374244937" r="4.05" fill="white" stroke-width="0.8" stroke="black" />
<circle cx="-243.29134394528162" cy="36.41412180276497" r="0.43000000000000016" fill="white" stroke-width="0.8" stroke="black" />
<circle cx="-216.37843947490944" cy="-1.3666656205102388" r="0.96" fill="white" stroke-width="0.8" stroke="black" />
<circle cx="-304.9504478414931" cy="111.6496405674698" r="0.2200000000000002" fill="white" stroke-width="0.8" stroke="black" />
<circle cx="-355.21136753542976" cy="216.6512794354001" r="0.1299999999999999" fill="white" stroke-width="0.8" stroke="black" />
<circle cx="-267.1806094176574" cy="41.09528667944848" r="1.65" fill="white" stroke-width="0.8" stroke="black" />
<circle cx="-342.9114846393464" cy="170.4470346198047" r="0.27" fill="white" stroke-width="0.8" stroke="black" />
<circle cx="-77.68510485428139" cy="-157.54390754741712" r="1.9300000000000002" fill="white" stroke-width="0.8" stroke="black" />
<circle cx="-384.8044037952764" cy="271.40739771650516" r="1.25" fill="white" stroke-width="0.8" stroke="black" />
<circle cx="-231.85880269598002" cy="-34.180896012439035" r="0.5099999999999998" fill="white" stroke-width="0.8" stroke="black" />
<circle cx="-270.9461998960229" cy="-15.762810892054615" r="0.54" fill="white" stroke-width="0.8" stroke="black" />
<circle cx="-411.55418664252267" cy="202.45460467879417" r="1.3900000000000001" fill="white" stroke-width="0.8" stroke="black" />
<circle cx="-95.82192070319672" cy="-160.25564136513762" r="1.0" fill="white" stroke-width="0.8" stroke="black" />
<circle cx="-161.1859436589214" cy="-121.84346315382126" r="0.71" fill="white" stroke-width="0.8" stroke="black" />
<circle cx="-298.07840016132144" cy="-9.693157246082494" r="0.33999999999999986" fill="white" stroke-width="0.8" stroke="black" />
<circle cx="-313.6083160304301" cy="-6.539651713683328" r="1.7799999999999998" fill="white" stroke-width="0.8" stroke="black" />
<circle cx="-376.2065195525558" cy="69.8822856690755" r="0.20000000000000018" fill="white" stroke-width="0.8" stroke="black" />
<circle cx="-449.2356002197231" cy="214.04811923570594" r="0.08999999999999986" fill="white" stroke-width="0.8" stroke="black" />
<circle cx="-321.89063118223834" cy="-13.642690310683328" r="0.18999999999999995" fill="white" stroke-width="0.8" stroke="black" />
<circle cx="-400.9481896017705" cy="79.24901907394181" r="1.37" fill="white" stroke-width="0.8" stroke="black" />
<circle cx="-369.52162591685453" cy="31.71677471835649" r="0.3500000000000001" fill="white" stroke-width="0.8" stroke="black" />
<circle cx="-439.3659524522545" cy="126.4701182649415" r="0.45999999999999996" fill="white" stroke-width="0.8" stroke="black" />
<circle cx="-414.9666159881374" cy="80.97272887218604" r="0.29000000000000004" fill="white" stroke-width="0.8" stroke="black" />
<circle cx="-378.1389704641818" cy="17.6235985697593" r="0.1499999999999999" fill="white" stroke-width="0.8" stroke="black" />
<circle cx="-469.5546543346102" cy="93.15238593381922" r="1.27" fill="white" stroke-width="0.8" stroke="black" />
<circle cx="-477.4664519560978" cy="93.01175242671974" r="0.77" fill="white" stroke-width="0.8" stroke="black" />
<circle cx="-246.64700427789597" cy="-125.18445079147459" r="0.08999999999999986" fill="white" stroke-width="0.8" stroke="black" />
<circle cx="-383.74680576452687" cy="-31.865300803169" r="0.2599999999999998" fill="white" stroke-width="0.8" stroke="black" />
<circle cx="-164.66293469559545" cy="-166.31112882780553" r="1.27" fill="white" stroke-width="0.8" stroke="black" />
<circle cx="-378.446893296997" cy="-52.863585649134016" r="1.2200000000000002" fill="white" stroke-width="0.8" stroke="black" />
<circle cx="-465.9895661127062" cy="36.426557219658854" r="0.18000000000000016" fill="white" stroke-width="0.8" stroke="black" />
<circle cx="-333.3429054414768" cy="-104.13249700692333" r="1.19" fill="white" stroke-width="0.8" stroke="black" />
<circle cx="-294.769821202827" cy="-128.2317033471031" r="0.52" fill="white" stroke-width="0.8" stroke="black" />
<circle cx="-455.4857291895839" cy="-42.89052630930635" r="0.81" fill="white" stroke-width="0.8" stroke="black" />
<circle cx="-344.7134142229375" cy="-126.61114399223914" r="0.08000000000000007" fill="white" stroke-width="0.8" stroke="black" />
<circle cx="-145.2243935548481" cy="-200.42655630842907" r="0.8300000000000001" fill="white" stroke-width="0.8" stroke="black" />
<circle cx="-440.200835270966" cy="-92.0221366331874" r="1.2200000000000002" fill="white" stroke-width="0.8" stroke="black" />
<circle cx="-383.5896901182371" cy="-128.956869798583" r="0.8799999999999999" fill="white" stroke-width="0.8" stroke="black" />
<circle cx="-315.7094291922145" cy="-161.0891596272335" r="0.8399999999999999" fill="white" stroke-width="0.8" stroke="black" />
<circle cx="-225.90587400136192" cy="-203.7231620200014" r="1.21" fill="white" stroke-width="0.8" stroke="black" />
<circle cx="-459.11007323966527" cy="-119.78949519962752" r="1.92" fill="white" stroke-width="0.8" stroke="black" />
<circle cx="-263.84783406701183" cy="-205.65638189075995" r="0.18000000000000016" fill="white" stroke-width="0.8" stroke="black" />
<circle cx="-374.04958901061354" cy="-183.78992941741902" r="0.5800000000000001" fill="white" stroke-width="0.8" stroke="black" />
<circle cx="-197.38561677717226" cy="-226.751369182331" r="0.27" fill="white" stroke-width="0.8" stroke="black" />
<circle cx="-316.6557316361006" cy="-214.61655710761903" r="0.14000000000000012" fill="white" stroke-width="0.8" stroke="black" />
<circle cx="-229.78727017529823" cy="-227.58488200497598" r="1.7599999999999998" fill="white" stroke-width="0.8" stroke="black" />
<circle cx="-365.4244228967108" cy="-203.98834709646675" r="0.2999999999999998" fill="white" stroke-width="0.8" stroke="black" />
<circle cx="-368.1395120407366" cy="-217.9409473941064" r="0.16000000000000014" fill="white" stroke-width="0.8" stroke="black" />
<circle cx="-99.10261219726955" cy="-235.71740095158026" r="0.4500000000000002" fill="white" stroke-width="0.8" stroke="black" />
<circle cx="-410.11514472543627" cy="-232.0357521167854" r="0.1499999999999999" fill="white" stroke-width="0.8" stroke="black" />
<circle cx="-300.0315080602217" cy="-268.79484204475256" r="3.97" fill="white" stroke-width="0.8" stroke="black" />
<circle cx="-329.2990935208164" cy="-285.76795096766466" r="0.48" fill="white" stroke-width="0.8" stroke="black" />
<circle cx="-329.63773394623877" cy="-298.56229341921113" r="0.75" fill="white" stroke-width="0.8" stroke="black" />
<circle cx="-117.15080677016603" cy="-268.04732138556034" r="0.9300000000000002" fill="white" stroke-width="0.8" stroke="black" />
<circle cx="-195.5717620776741" cy="-300.0574866463884" r="0.20000000000000018" fill="white" stroke-width="0.8" stroke="black" />
<circle cx="-198.53807724492702" cy="-314.0844478650127" r="0.2400000000000002" fill="white" stroke-width="0.8" stroke="black" />
<circle cx="-339.98661446565194" cy="-348.2837044159935" r="0.9500000000000002" fill="white" stroke-width="0.8" stroke="black" />
<circle cx="-226.28738398009256" cy="-342.3182914348209" r="1.1400000000000001" fill="white" stroke-width="0.8" stroke="black" />
<circle cx="-92.21869127923067" cy="-276.79081333031917" r="0.16000000000000014" fill="white" stroke-width="0.8" stroke="black" />
<circle cx="-274.75557398840743" cy="-375.77650842527044" r="0.10999999999999988" fill="white" stroke-width="0.8" stroke="black" />
<circle cx="-195.27290829265135" cy="-365.86258696998385" r="0.20000000000000018" fill="white" stroke-width="0.8" stroke="black" />
<circle cx="-188.75990848666953" cy="-364.5506131867729" r="0.040000000000000036" fill="white" stroke-width="0.8" stroke="black" />
<circle cx="-220.83122006390465" cy="-393.42847171653693" r="1.77" fill="white" stroke-width="0.8" stroke="black" />
<circle cx="-176.49982034107512" cy="-394.8677454074993" r="2.75" fill="white" stroke-width="0.8" stroke="black" />
<circle cx="-102.35305053389644" cy="-332.5119512735841" r="0.5899999999999999" fill="white" stroke-width="0.8" stroke="black" />
<circle cx="-224.78956997257833" cy="-439.10747012813073" r="1.52" fill="white" stroke-width="0.8" stroke="black" />
<circle cx="-177.4415914996078" cy="-423.6983590163561" r="0.06000000000000005" fill="white" stroke-width="0.8" stroke="black" />
<circle cx="-156.6015528750904" cy="-418.82609723422934" r="0.2799999999999998" fill="white" stroke-width="0.8" stroke="black" />
<circle cx="-167.55364924814302" cy="-451.29570771723456" r="0.2599999999999998" fill="white" stroke-width="0.8" stroke="black" />
<circle cx="-77.38115935755292" cy="-342.60718402765076" r="1.5499999999999998" fill="white" stroke-width="0.8" stroke="black" />
<circle cx="-48.38256200554245" cy="-306.57892894483393" r="0.77" fill="white" stroke-width="0.8" stroke="black" />
<circle cx="-115.45608816170817" cy="-430.4643629623909" r="0.020000000000000018" fill="white" stroke-width="0.8" stroke="black" />
<circle cx="-45.68104388060747" cy="-379.83922690015265" r="0.6099999999999999" fill="white" stroke-width="0.8" stroke="black" />
<circle cx="-34.5567191287098" cy="-426.6530828914405" r="0.2400000000000002" fill="white" stroke-width="0.8" stroke="black" />
<circle cx="-6.897435613928052" cy="-340.4136358281576" r="0.5" fill="white" stroke-width="0.8" stroke="black" />
<circle cx="3.653716353956072" cy="-473.166403529121" r="0.3799999999999999" fill="white" stroke-width="0.8" stroke="black" />
<circle cx="51.66885844870871" cy="-445.3698056873767" r="0.18999999999999995" fill="white" stroke-width="0.8" stroke="black" />
<circle cx="13.18692650363058" cy="-275.8897146715441" r="0.79" fill="white" stroke-width="0.8" stroke="black" />
<circle cx="412.3821561020275" cy="-221.01891851429139" r="1" fill="darkred" stroke-width="1" stroke="blue" />
<text x="412.3821561020275" y="-221.01891851429139" font-size="8" fill="grey">323P/SOHO</text>
<text x="-500" y="-500.0" font-size="12" fill="black">☉ 07:04</text>
<circle cx="231.35347619645154" cy="83.99303792893883" r="1" fill="darkred" stroke-width="1" stroke="darkred" />
<text x="231.35347619645154" y="83.99303792893883" font-size="12" fill="black">☾</text>
<text x="-500" y="-485.6" font-size="12" fill="black">☿ 06:31</text>
<text x="-500" y="-471.2" font-size="12" fill="black">♀ 05:51</text>
<circle cx="239.72865532554064" cy="87.63832802405265" r="1" fill="darkred" stroke-width="1" stroke="darkred" />
<text x="239.72865532554064" y="87.63832802405265" font-size="12" fill="black">♂</text>
<circle cx="388.85896101155197" cy="-95.69181677413768" r="1" fill="darkred" stroke-width="1" stroke="darkred" />
<text x="388.85896101155197" y="-95.69181677413768" font-size="12" fill="black">♃</text>
<text x="-500" y="-456.8" font-size="12" fill="black">♄ 06:42</text>
<circle cx="428.09911373074834" cy="-236.5319549238938" r="1" fill="darkred" stroke-width="1" stroke="darkred" />
<text x="428.09911373074834" y="-236.5319549238938" font-size="12" fill="black">⛢</text>
<text x="-500" y="-442.4" font-size="12" fill="black">♆ 06:46</text>
</svg>