<?xml version="1.0" encoding="UTF-8"?>
<svg xmlns="http://www.w3.org/2000/svg" xmlns:xlink="http://www.w3.org/1999/xlink"
     width="650" height="650" viewBox="-325.0 -325.0 650 650" displayInline="False">
<defs>
</defs>
<circle cx="0" cy="0" r="300" fill="lightgrey" stroke-width="2" stroke="black" />
<circle cx="27.609353622508745" cy="75.58970161169242" r="1.9300000000000002" fill="white" stroke-width="0.8" stroke="black" />
<circle cx="15.403448757632285" cy="-24.02375352359044" r="1.7200000000000002" fill="white" stroke-width="0.8" stroke="black" />
<circle cx="27.712331111683966" cy="122.24910025578437" r="1.17" fill="white" stroke-width="0.8" stroke="black" />
<circle cx="26.05169044858859" cy="202.73328631054343" r="0.43999999999999995" fill="white" stroke-width="0.8" stroke="black" />
<circle cx="4.082948955772486" cy="-5.578351863243962" r="0.31000000000000005" fill="white" stroke-width="0.8" stroke="black" />
<circle cx="4.40609055618909" cy="71.2317067145287" r="0.73" fill="white" stroke-width="0.8" stroke="black" />
<circle cx="2.1920895550266515" cy="-14.338071426725028" r="1.7599999999999998" fill="white" stroke-width="0.8" stroke="black" />
<circle cx="1.8964841356526023" cy="234.09925823414721" r="1.96" fill="white" stroke-width="0.8" stroke="black" />
<circle cx="-1.7284199005062246" cy="-18.5774441381461" r="0.54" fill="white" stroke-width="0.8" stroke="black" />
<circle cx="-4.6852014240569195" cy="-28.344000096503798" r="1.85" fill="white" stroke-width="0.8" stroke="black" />
<circle cx="-7.52259318319415" cy="45.67420648224693" r="0.14000000000000012" fill="white" stroke-width="0.8" stroke="black" />
<circle cx="-23.359706491687636" cy="207.45236054537557" r="0.54" fill="white" stroke-width="0.8" stroke="black" />
<circle cx="-16.74779919495549" cy="54.764493253880474" r="1.9300000000000002" fill="white" stroke-width="0.8" stroke="black" />
<circle cx="-38.58033795543471" cy="199.62857965372885" r="0.3999999999999999" fill="white" stroke-width="0.8" stroke="black" />
<circle cx="-16.780606448366232" cy="-27.85369403713144" r="1.3399999999999999" fill="white" stroke-width="0.8" stroke="black" />
<circle cx="-39.65323972861964" cy="120.38505573537488" r="0.3799999999999999" fill="white" stroke-width="0.8" stroke="black" />
<circle cx="-28.890951833982538" cy="9.46932584646105" r="0.41000000000000014" fill="white" stroke-width="0.8" stroke="black" />
<circle cx="-60.07761139854232" cy="223.25578608006927" r="0.5099999999999998" fill="white" stroke-width="0.8" stroke="black" />
<circle cx="-66.44673961567648" cy="203.3483019233488" r="0.2599999999999998" fill="white" stroke-width="0.8" stroke="black" />
<circle cx="-50.066637805298946" cy="70.28997722558384" r="0.5800000000000001" fill="white" stroke-width="0.8" stroke="black" />
<circle cx="-56.375478503401354" cy="104.19418659729725" r="0.1200000000000001" fill="white" stroke-width="0.8" stroke="black" />
<circle cx="-25.453369871786595" cy="-41.294218790590214" r="0.6499999999999999" fill="white" stroke-width="0.8" stroke="black" />
<circle cx="-56.440407778979115" cy="98.99714073982807" r="1.3599999999999999" fill="white" stroke-width="0.8" stroke="black" />
<circle cx="-77.2765861651877" cy="238.16291489894002" r="0.009999999999999787" fill="white" stroke-width="0.8" stroke="black" />
<circle cx="-72.1214986938657" cy="157.6022594998711" r="0.18000000000000016" fill="white" stroke-width="0.8" stroke="black" />
<circle cx="-19.80272800549664" cy="-70.19501065436303" r="0.04999999999999982" fill="white" stroke-width="0.8" stroke="black" />
<circle cx="-48.13650826366475" cy="26.772809476421426" r="1.9" fill="white" stroke-width="0.8" stroke="black" />
<circle cx="-64.69601102933468" cy="87.95711639106459" r="1.9900000000000002" fill="white" stroke-width="0.8" stroke="black" />
<circle cx="-57.732362053576" cy="49.728088667185084" r="1.0" fill="white" stroke-width="0.8" stroke="black" />
<circle cx="-1.2466865007001522" cy="-123.67178541347155" r="2.0300000000000002" fill="white" stroke-width="0.8" stroke="black" />
<circle cx="-109.81428112547432" cy="145.9084323022201" r="0.5299999999999998" fill="white" stroke-width="0.8" stroke="black" />
<circle cx="-93.26734960394494" cy="65.11469207063882" r="0.3900000000000001" fill="white" stroke-width="0.8" stroke="black" />
<circle cx="-56.7220120690647" cy="-24.937554381504672" r="0.22999999999999998" fill="white" stroke-width="0.8" stroke="black" />
<circle cx="-62.86998429147782" cy="-16.09852691046099" r="0.06999999999999984" fill="white" stroke-width="0.8" stroke="black" />
<circle cx="-129.96061918504347" cy="182.77529975667457" r="0.10999999999999988" fill="white" stroke-width="0.8" stroke="black" />
<circle cx="-126.20657716597016" cy="136.9084343423654" r="1.46" fill="white" stroke-width="0.8" stroke="black" />
<circle cx="-66.42378363705782" cy="-20.765778894320473" r="1.0899999999999999" fill="white" stroke-width="0.8" stroke="black" />
<circle cx="-88.63341423811933" cy="23.994534272920347" r="0.6800000000000002" fill="white" stroke-width="0.8" stroke="black" />
<circle cx="-87.32060742415652" cy="16.566777153795897" r="1.9100000000000001" fill="white" stroke-width="0.8" stroke="black" />
<circle cx="-82.20124385951577" cy="4.223936461856659" r="0.20999999999999996" fill="white" stroke-width="0.8" stroke="black" />
<circle cx="-152.2136945245678" cy="248.20100475847767" r="0.20000000000000018" fill="white" stroke-width="0.8" stroke="black" />
<circle cx="-158.5424973859959" cy="219.7105805498544" r="0.2999999999999998" fill="white" stroke-width="0.8" stroke="black" />
<circle cx="-81.26413382116633" cy="-14.995817885129226" r="2.21" fill="white" stroke-width="0.8" stroke="black" />
<circle cx="-140.81380222986948" cy="112.00931321348108" r="0.3900000000000001" fill="white" stroke-width="0.8" stroke="black" />
<circle cx="-141.9827999188885" cy="108.72848742655098" r="0.27" fill="white" stroke-width="0.8" stroke="black" />
<circle cx="-165.28837721417233" cy="171.07782270943997" r="0.2799999999999998" fill="white" stroke-width="0.8" stroke="black" />
<circle cx="-93.60017394826662" cy="-14.689983522745813" r="0.9900000000000002" fill="white" stroke-width="0.8" stroke="black" />
<circle cx="-175.2796459698415" cy="167.61664430821904" r="0.48" fill="white" stroke-width="0.8" stroke="black" />
<circle cx="-122.36775705274398" cy="30.398243313215872" r="0.16000000000000014" fill="white" stroke-width="0.8" stroke="black" />
<circle cx="-136.02096258383702" cy="55.20230744673213" r="0.2799999999999998" fill="white" stroke-width="0.8" stroke="black" />
<circle cx="-104.54975025051243" cy="-0.4389168229650351" r="0.22999999999999998" fill="white" stroke-width="0.8" stroke="black" />
<circle cx="-136.27387810665914" cy="54.000789455418776" r="0.1299999999999999" fill="white" stroke-width="0.8" stroke="black" />
<circle cx="-137.8192536337375" cy="54.09089428948374" r="1.15" fill="white" stroke-width="0.8" stroke="black" />
<circle cx="-139.04539837269692" cy="53.511002654011186" r="0.3799999999999999" fill="white" stroke-width="0.8" stroke="black" />
<circle cx="-129.0195387057632" cy="27.53259990173715" r="1.1600000000000001" fill="white" stroke-width="0.8" stroke="black" />
<circle cx="-115.94913084149286" cy="2.179752980113778" r="1.1" fill="white" stroke-width="0.8" stroke="black" />
<circle cx="-192.08699789549766" cy="173.98188214693593" r="1.0299999999999998" fill="white" stroke-width="0.8" stroke="black" />
<circle cx="-124.64975348599303" cy="13.94101669514423" r="0.020000000000000018" fill="white" stroke-width="0.8" stroke="black" />
<circle cx="-165.12500903801603" cy="84.47163082652848" r="0.5899999999999999" fill="white" stroke-width="0.8" stroke="black" />
<circle cx="-176.18662919419106" cy="104.35709547594057" r="0.08999999999999986" fill="white" stroke-width="0.8" stroke="black" />
<circle cx="-105.15413242035405" cy="-23.535595354129807" r="0.040000000000000036" fill="white" stroke-width="0.8" stroke="black" />
<circle cx="-174.30946161397208" cy="64.53814798740143" r="0.3500000000000001" fill="white" stroke-width="0.8" stroke="black" />
<circle cx="-173.1968477940002" cy="56.87589227545261" r="0.22999999999999998" fill="white" stroke-width="0.8" stroke="black" />
<circle cx="-179.90861391801917" cy="58.61182147061067" r="0.16000000000000014" fill="white" stroke-width="0.8" stroke="black" />
<circle cx="-174.0882460771515" cy="48.71550449931221" r="0.4700000000000002" fill="white" stroke-width="0.8" stroke="black" />
<circle cx="-180.13220187177768" cy="58.8450316463946" r="0.6000000000000001" fill="white" stroke-width="0.8" stroke="black" />
<circle cx="-183.95958394774877" cy="52.69341474488938" r="3.13" fill="white" stroke-width="0.8" stroke="black" />
<circle cx="-216.14615082871157" cy="117.12389524816025" r="0.06999999999999984" fill="white" stroke-width="0.8" stroke="black" />
<circle cx="-230.15996488478328" cy="155.20361991256303" r="0.14000000000000012" fill="white" stroke-width="0.8" stroke="black" />
<circle cx="-211.04695156687575" cy="74.076699411327" r="0.81" fill="white" stroke-width="0.8" stroke="black" />
<circle cx="-214.3941766919595" cy="77.5903674120384" r="0.31999999999999984" fill="white" stroke-width="0.8" stroke="black" />
<circle cx="-222.01831224410606" cy="85.98926387690973" r="0.29000000000000004" fill="white" stroke-width="0.8" stroke="black" />
<circle cx="-160.7031125377542" cy="-7.19014652395386" r="1.31" fill="white" stroke-width="0.8" stroke="black" />
<circle cx="-136.06577333370694" cy="-36.684920052141486" r="0.9700000000000002" fill="white" stroke-width="0.8" stroke="black" />
<circle cx="-143.4224852773099" cy="-30.290348780229383" r="0.31000000000000005" fill="white" stroke-width="0.8" stroke="black" />
<circle cx="-144.61175131521452" cy="-32.769231573683385" r="0.8199999999999998" fill="white" stroke-width="0.8" stroke="black" />
<circle cx="-244.60996450284102" cy="102.37169208432407" r="1.2200000000000002" fill="white" stroke-width="0.8" stroke="black" />
<circle cx="-263.2737617225303" cy="139.8720442397303" r="0.71" fill="white" stroke-width="0.8" stroke="black" />
<circle cx="-254.62886014609768" cy="108.6967078578707" r="3.82" fill="white" stroke-width="0.8" stroke="black" />
<circle cx="-135.38653707848817" cy="-49.015849855276585" r="3.92" fill="white" stroke-width="0.8" stroke="black" />
<circle cx="-255.12270914981124" cy="101.55638968209237" r="0.41000000000000014" fill="white" stroke-width="0.8" stroke="black" />
<circle cx="-253.23665363887207" cy="80.75642027908562" r="0.6499999999999999" fill="white" stroke-width="0.8" stroke="black" />
<circle cx="-237.14006842529477" cy="51.32984275186355" r="2.3600000000000003" fill="white" stroke-width="0.8" stroke="black" />
<circle cx="-185.99156938664564" cy="-13.093924324505378" r="2.35" fill="white" stroke-width="0.8" stroke="black" />
<circle cx="-254.98095177708274" cy="67.76805629406019" r="1.75" fill="white" stroke-width="0.8" stroke="black" />
<circle cx="-235.94813477238182" cy="32.55252284020553" r="0.6099999999999999" fill="white" stroke-width="0.8" stroke="black" />
<circle cx="-267.5968889306768" cy="84.51457287281606" r="1.25" fill="white" stroke-width="0.8" stroke="black" />
<circle cx="-259.70934738840964" cy="67.48640503061615" r="2.31" fill="white" stroke-width="0.8" stroke="black" />
<circle cx="-210.5896162826916" cy="-1.382281913962902" r="1.0299999999999998" fill="white" stroke-width="0.8" stroke="black" />
<circle cx="-264.16146725273285" cy="70.23399041014022" r="0.22999999999999998" fill="white" stroke-width="0.8" stroke="black" />
<circle cx="-264.37325932391093" cy="66.3378487672178" r="2.26" fill="white" stroke-width="0.8" stroke="black" />
<circle cx="-283.3521959009243" cy="88.15174957693105" r="1.9300000000000002" fill="white" stroke-width="0.8" stroke="black" />
<circle cx="-166.35825923528154" cy="-53.71046885899212" r="0.029999999999999805" fill="white" stroke-width="0.8" stroke="black" />
<circle cx="-253.8430470111604" cy="24.04577243949789" r="3.55" fill="white" stroke-width="0.8" stroke="black" />
<circle cx="-121.16402557875838" cy="-85.79664208873372" r="0.2799999999999998" fill="white" stroke-width="0.8" stroke="black" />
<circle cx="-150.87069962883027" cy="-69.84321394760487" r="2.1" fill="white" stroke-width="0.8" stroke="black" />
<circle cx="-174.7091609135333" cy="-54.93385532858478" r="1.35" fill="white" stroke-width="0.8" stroke="black" />
<circle cx="-223.59355081034096" cy="-33.50838177019047" r="0.69" fill="white" stroke-width="0.8" stroke="black" />
<circle cx="-226.6178577178327" cy="-40.1488710075369" r="1.13" fill="white" stroke-width="0.8" stroke="black" />
<circle cx="-250.28043751933285" cy="-38.43887262624615" r="2.0700000000000003" fill="white" stroke-width="0.8" stroke="black" />
<circle cx="-225.1751888675491" cy="-63.49243375820535" r="0.94" fill="white" stroke-width="0.8" stroke="black" />
<circle cx="-263.5911293007341" cy="-36.797435821328605" r="0.6499999999999999" fill="white" stroke-width="0.8" stroke="black" />
<circle cx="-198.02126746269929" cy="-86.70693954995754" r="0.3999999999999999" fill="white" stroke-width="0.8" stroke="black" />
<circle cx="-261.63481061616085" cy="-77.72321540909846" r="0.41999999999999993" fill="white" stroke-width="0.8" stroke="black" />
<circle cx="-243.44304411449707" cy="-90.20490286606072" r="0.5" fill="white" stroke-width="0.8" stroke="black" />
<circle cx="-223.77255902639493" cy="-104.76836329917126" r="0.2200000000000002" fill="white" stroke-width="0.8" stroke="black" />
<circle cx="-291.26219481201696" cy="-68.7877466937184" r="1.1099999999999999" fill="white" stroke-width="0.8" stroke="black" />
<circle cx="-209.65340189176385" cy="-117.82194766670864" r="2.42" fill="white" stroke-width="0.8" stroke="black" />
<circle cx="-237.13837890793326" cy="-117.45791123875689" r="0.43000000000000016" fill="white" stroke-width="0.8" stroke="black" />
<circle cx="-223.9059727558404" cy="-122.83795022042918" r="2.84" fill="white" stroke-width="0.8" stroke="black" />
<circle cx="-98.95320904235287" cy="-158.84755039472674" r="0.6499999999999999" fill="white" stroke-width="0.8" stroke="black" />
<circle cx="-137.2567140459543" cy="-183.62316257641072" r="0.8799999999999999" fill="white" stroke-width="0.8" stroke="black" />
<circle cx="-159.3045629611248" cy="-189.15035678435603" r="0.040000000000000036" fill="white" stroke-width="0.8" stroke="black" />
<circle cx="-139.03115774865165" cy="-187.07461536668745" r="0.43000000000000016" fill="white" stroke-width="0.8" stroke="black" />
<circle cx="-170.4831550620652" cy="-206.2101070160951" r="0.18000000000000016" fill="white" stroke-width="0.8" stroke="black" />
<circle cx="-178.2999530297699" cy="-209.7728336555836" r="0.8599999999999999" fill="white" stroke-width="0.8" stroke="black" />
<circle cx="-77.6784576061624" cy="-179.28968795665568" r="0.3500000000000001" fill="white" stroke-width="0.8" stroke="black" />
<circle cx="-113.40364239236571" cy="-198.14534974656394" r="0.8300000000000001" fill="white" stroke-width="0.8" stroke="black" />
<circle cx="-83.85202201021173" cy="-193.53902368227153" r="0.2200000000000002" fill="white" stroke-width="0.8" stroke="black" />
<circle cx="-119.17048502309339" cy="-237.10695783612954" r="0.5499999999999998" fill="white" stroke-width="0.8" stroke="black" />
<circle cx="-120.04124521360193" cy="-242.9004552580443" r="0.94" fill="white" stroke-width="0.8" stroke="black" />
<circle cx="-59.75594760007141" cy="-223.1825340851151" r="1.6600000000000001" fill="white" stroke-width="0.8" stroke="black" />
<circle cx="-48.365037376502656" cy="-208.6070093810281" r="2.19" fill="white" stroke-width="0.8" stroke="black" />
<circle cx="-79.22055474994198" cy="-258.4525475030647" r="1.0" fill="white" stroke-width="0.8" stroke="black" />
<circle cx="-25.54324043411692" cy="-190.5553920792376" r="0.18000000000000016" fill="white" stroke-width="0.8" stroke="black" />
<circle cx="-46.2918615661589" cy="-259.8605295540934" r="0.31000000000000005" fill="white" stroke-width="0.8" stroke="black" />
<circle cx="-33.81124244757175" cy="-242.7349759544381" r="1.5899999999999999" fill="white" stroke-width="0.8" stroke="black" />
<circle cx="-17.751007656201423" cy="-234.51879020885096" r="0.6800000000000002" fill="white" stroke-width="0.8" stroke="black" />
<circle cx="-4.155996629926066" cy="-193.13309640491997" r="0.1499999999999999" fill="white" stroke-width="0.8" stroke="black" />
<circle cx="5.258570880664425" cy="-239.2288448847595" r="2.24" fill="white" stroke-width="0.8" stroke="black" />
<circle cx="10.800434762021062" cy="-297.84393978163314" r="1.1099999999999999" fill="white" stroke-width="0.8" stroke="black" />
<circle cx="24.32116500082695" cy="-240.56001650000277" r="1.77" fill="white" stroke-width="0.8" stroke="black" />
<circle cx="25.07873367442197" cy="-240.20505331010682" r="0.009999999999999787" fill="white" stroke-width="0.8" stroke="black" />
<circle cx="46.18876744322575" cy="-254.475769166631" r="2.15" fill="white" stroke-width="0.8" stroke="black" />
<circle cx="34.23017249606631" cy="-205.0938107371118" r="0.33000000000000007" fill="white" stroke-width="0.8" stroke="black" />
<circle cx="101.71519559339384" cy="-269.84485919475696" r="0.96" fill="white" stroke-width="0.8" stroke="black" />
<circle cx="31.133246972845658" cy="-169.99502250591155" r="1.9300000000000002" fill="white" stroke-width="0.8" stroke="black" />
<circle cx="118.79073520022166" cy="-248.90389870401117" r="0.5099999999999998" fill="white" stroke-width="0.8" stroke="black" />
<circle cx="149.962785685867" cy="-253.5156559416453" r="0.54" fill="white" stroke-width="0.8" stroke="black" />
<circle cx="43.16993591752101" cy="-171.1386179167894" r="1.0" fill="white" stroke-width="0.8" stroke="black" />
<circle cx="78.51778876954718" cy="-199.0677334641717" r="0.71" fill="white" stroke-width="0.8" stroke="black" />
<circle cx="139.4064975380701" cy="-192.44450845280323" r="0.08999999999999986" fill="white" stroke-width="0.8" stroke="black" />
<circle cx="88.77101186100137" cy="-172.73862612492042" r="1.27" fill="white" stroke-width="0.8" stroke="black" />
<circle cx="200.66225807221633" cy="-183.73941046063334" r="1.19" fill="white" stroke-width="0.8" stroke="black" />
<circle cx="173.64310287199118" cy="-181.12231279053069" r="0.52" fill="white" stroke-width="0.8" stroke="black" />
<circle cx="208.2005011527108" cy="-166.51693635317073" r="0.08000000000000007" fill="white" stroke-width="0.8" stroke="black" />
<circle cx="82.41790119264661" cy="-151.92799669584306" r="0.8300000000000001" fill="white" stroke-width="0.8" stroke="black" />
<circle cx="233.91746052414445" cy="-148.81697388775845" r="0.8799999999999999" fill="white" stroke-width="0.8" stroke="black" />
<circle cx="188.6928072000279" cy="-155.77675409455153" r="0.8399999999999999" fill="white" stroke-width="0.8" stroke="black" />
<circle cx="133.36489172276112" cy="-147.43937593225309" r="1.21" fill="white" stroke-width="0.8" stroke="black" />
<circle cx="157.32880359132236" cy="-140.93615248097467" r="0.18000000000000016" fill="white" stroke-width="0.8" stroke="black" />
<circle cx="224.88216756194362" cy="-121.62692573598615" r="0.5800000000000001" fill="white" stroke-width="0.8" stroke="black" />
<circle cx="118.4644411513888" cy="-135.7207416579107" r="0.27" fill="white" stroke-width="0.8" stroke="black" />
<circle cx="190.05284078377343" cy="-123.35446875018128" r="0.14000000000000012" fill="white" stroke-width="0.8" stroke="black" />
<circle cx="138.20138654841946" cy="-132.49721331595805" r="1.7599999999999998" fill="white" stroke-width="0.8" stroke="black" />
<circle cx="218.96473292933553" cy="-113.2937828081831" r="0.2999999999999998" fill="white" stroke-width="0.8" stroke="black" />
<circle cx="285.9708280319704" cy="-67.85614954827092" r="0.29000000000000004" fill="white" stroke-width="0.8" stroke="black" />
<circle cx="219.9788354814179" cy="-104.00365929293793" r="0.16000000000000014" fill="white" stroke-width="0.8" stroke="black" />
<circle cx="61.87337983922379" cy="-127.90624072831223" r="0.4500000000000002" fill="white" stroke-width="0.8" stroke="black" />
<circle cx="241.6306601504305" cy="-77.53935340657539" r="0.1499999999999999" fill="white" stroke-width="0.8" stroke="black" />
<circle cx="181.60510239863805" cy="-94.77724787315475" r="3.97" fill="white" stroke-width="0.8" stroke="black" />
<circle cx="197.52171599891352" cy="-76.5154182974347" r="0.48" fill="white" stroke-width="0.8" stroke="black" />
<circle cx="197.64273321306698" cy="-68.6038712153599" r="0.75" fill="white" stroke-width="0.8" stroke="black" />
<circle cx="252.54352474963127" cy="-20.880619563322796" r="1.0099999999999998" fill="white" stroke-width="0.8" stroke="black" />
<circle cx="78.43372372105718" cy="-110.42609745300422" r="0.9300000000000002" fill="white" stroke-width="0.8" stroke="black" />
<circle cx="126.38755087371761" cy="-91.24434520855687" r="0.20000000000000018" fill="white" stroke-width="0.8" stroke="black" />
<circle cx="269.7946341359005" cy="28.527788190403705" r="0.6400000000000001" fill="white" stroke-width="0.8" stroke="black" />
<circle cx="129.55457077863835" cy="-82.47439125935594" r="0.2400000000000002" fill="white" stroke-width="0.8" stroke="black" />
<circle cx="201.98535085543026" cy="-35.002031203768915" r="0.9500000000000002" fill="white" stroke-width="0.8" stroke="black" />
<circle cx="146.59915137201025" cy="-62.53554216073129" r="1.1400000000000001" fill="white" stroke-width="0.8" stroke="black" />
<circle cx="239.93659516421678" cy="23.01633348001917" r="1.2799999999999998" fill="white" stroke-width="0.8" stroke="black" />
<circle cx="220.00471911897432" cy="1.3160867188156742" r="0.31999999999999984" fill="white" stroke-width="0.8" stroke="black" />
<circle cx="66.51050055056824" cy="-103.27755691636642" r="0.16000000000000014" fill="white" stroke-width="0.8" stroke="black" />
<circle cx="241.21059037591792" cy="31.87409519027467" r="3.24" fill="white" stroke-width="0.8" stroke="black" />
<circle cx="256.8144895928841" cy="58.24298296548101" r="0.1299999999999999" fill="white" stroke-width="0.8" stroke="black" />
<circle cx="243.7662204003143" cy="43.07562360094205" r="0.29000000000000004" fill="white" stroke-width="0.8" stroke="black" />
<circle cx="172.00359234197705" cy="-34.23592425353314" r="0.10999999999999988" fill="white" stroke-width="0.8" stroke="black" />
<circle cx="211.65564243716278" cy="7.100077448799863" r="0.4900000000000002" fill="white" stroke-width="0.8" stroke="black" />
<circle cx="246.64426406875629" cy="78.99365044288656" r="0.7599999999999998" fill="white" stroke-width="0.8" stroke="black" />
<circle cx="133.3220168632647" cy="-50.94163259330992" r="0.20000000000000018" fill="white" stroke-width="0.8" stroke="black" />
<circle cx="130.00467291549788" cy="-52.186132565217996" r="0.040000000000000036" fill="white" stroke-width="0.8" stroke="black" />
<circle cx="258.85767663619043" cy="125.85574007527704" r="0.41999999999999993" fill="white" stroke-width="0.8" stroke="black" />
<circle cx="258.91682145201406" cy="136.4081799530114" r="0.9500000000000002" fill="white" stroke-width="0.8" stroke="black" />
<circle cx="147.86037020138582" cy="-31.539780554750223" r="1.77" fill="white" stroke-width="0.8" stroke="black" />
<circle cx="199.151020192224" cy="47.841803254728234" r="0.3599999999999999" fill="white" stroke-width="0.8" stroke="black" />
<circle cx="195.1696502486338" cy="45.16407290055818" r="0.22999999999999998" fill="white" stroke-width="0.8" stroke="black" />
<circle cx="127.3659517089938" cy="-34.25602546270663" r="2.75" fill="white" stroke-width="0.8" stroke="black" />
<circle cx="82.41433134631521" cy="-71.33652579342233" r="0.5899999999999999" fill="white" stroke-width="0.8" stroke="black" />
<circle cx="152.56483917486366" cy="-2.6486336026337427" r="1.52" fill="white" stroke-width="0.8" stroke="black" />
<circle cx="229.55024788787068" cy="134.4423262023495" r="0.2200000000000002" fill="white" stroke-width="0.8" stroke="black" />
<circle cx="130.7419536692958" cy="-16.465231621404307" r="0.06000000000000005" fill="white" stroke-width="0.8" stroke="black" />
<circle cx="120.93057860396085" cy="-20.3282049193806" r="0.2799999999999998" fill="white" stroke-width="0.8" stroke="black" />
<circle cx="146.0808304449786" cy="21.48370574145682" r="0.79" fill="white" stroke-width="0.8" stroke="black" />
<circle cx="129.13819150499745" cy="0.04200904010605267" r="0.2599999999999998" fill="white" stroke-width="0.8" stroke="black" />
<circle cx="186.71308308496785" cy="100.4164251133321" r="0.08000000000000007" fill="white" stroke-width="0.8" stroke="black" />
<circle cx="71.93797753862518" cy="-63.3709384562113" r="1.5499999999999998" fill="white" stroke-width="0.8" stroke="black" />
<circle cx="203.17877483206092" cy="203.50379338611285" r="0.22999999999999998" fill="white" stroke-width="0.8" stroke="black" />
<circle cx="50.08557554377523" cy="-80.73394403380014" r="0.77" fill="white" stroke-width="0.8" stroke="black" />
<circle cx="186.2908266168459" cy="145.30307746768557" r="1.1" fill="white" stroke-width="0.8" stroke="black" />
<circle cx="104.22446446630823" cy="-13.323385960298609" r="0.020000000000000018" fill="white" stroke-width="0.8" stroke="black" />
<circle cx="187.1510863636981" cy="188.61249576863528" r="0.31000000000000005" fill="white" stroke-width="0.8" stroke="black" />
<circle cx="157.60957395011704" cy="99.63565697822347" r="1.62" fill="white" stroke-width="0.8" stroke="black" />
<circle cx="180.09598112809184" cy="189.80018220539017" r="1.15" fill="white" stroke-width="0.8" stroke="black" />
<circle cx="150.41940779659612" cy="142.9764556742908" r="1.0499999999999998" fill="white" stroke-width="0.8" stroke="black" />
<circle cx="119.49661928769483" cy="59.83343477172444" r="0.22999999999999998" fill="white" stroke-width="0.8" stroke="black" />
<circle cx="140.2037910671888" cy="122.97005198974682" r="0.48" fill="white" stroke-width="0.8" stroke="black" />
<circle cx="64.4194047654905" cy="-38.2287674672956" r="0.6099999999999999" fill="white" stroke-width="0.8" stroke="black" />
<circle cx="136.8919423995141" cy="152.741985676594" r="0.14000000000000012" fill="white" stroke-width="0.8" stroke="black" />
<circle cx="129.23648823109014" cy="150.6987126041453" r="0.3500000000000001" fill="white" stroke-width="0.8" stroke="black" />
<circle cx="68.86587071518328" cy="-9.748860265834052" r="0.2400000000000002" fill="white" stroke-width="0.8" stroke="black" />
<circle cx="109.05683241471958" cy="118.7604262830293" r="0.5899999999999999" fill="white" stroke-width="0.8" stroke="black" />
<circle cx="88.32891824527422" cy="56.19714492493848" r="1.0699999999999998" fill="white" stroke-width="0.8" stroke="black" />
<circle cx="92.91714105380406" cy="78.64690460119752" r="0.029999999999999805" fill="white" stroke-width="0.8" stroke="black" />
<circle cx="37.99209210942872" cy="-54.786055992326595" r="0.5" fill="white" stroke-width="0.8" stroke="black" />
<circle cx="89.2749379743185" cy="76.2643030877069" r="0.4900000000000002" fill="white" stroke-width="0.8" stroke="black" />
<circle cx="111.5677037227748" cy="183.71918606236437" r="0.27" fill="white" stroke-width="0.8" stroke="black" />
<circle cx="112.99972465215897" cy="212.36620051944405" r="0.73" fill="white" stroke-width="0.8" stroke="black" />
<circle cx="112.2742159110013" cy="260.8288335648652" r="2.83" fill="white" stroke-width="0.8" stroke="black" />
<circle cx="62.83064454059502" cy="22.136297797927394" r="0.3799999999999999" fill="white" stroke-width="0.8" stroke="black" />
<circle cx="75.8227847615186" cy="68.48775722002847" r="1.56" fill="white" stroke-width="0.8" stroke="black" />
<circle cx="85.84553260561795" cy="110.89960267828562" r="1.5099999999999998" fill="white" stroke-width="0.8" stroke="black" />
<circle cx="99.31555370226563" cy="234.27295880154745" r="0.31999999999999984" fill="white" stroke-width="0.8" stroke="black" />
<circle cx="82.57764008222733" cy="153.4191037651167" r="0.2999999999999998" fill="white" stroke-width="0.8" stroke="black" />
<circle cx="85.24868402978313" cy="233.38038708585538" r="0.040000000000000036" fill="white" stroke-width="0.8" stroke="black" />
<circle cx="38.62779622926935" cy="14.841643287810397" r="0.18999999999999995" fill="white" stroke-width="0.8" stroke="black" />
<circle cx="11.974763057188927" cy="-86.18454844490462" r="0.79" fill="white" stroke-width="0.8" stroke="black" />
<circle cx="222.9070479722476" cy="169.6817357364621" r="1" fill="darkred" stroke-width="1" stroke="blue" />
<text x="222.9070479722476" y="169.6817357364621" font-size="8" fill="grey">300P/Catalina</text>
<circle cx="75.13942543075352" cy="178.15733538073812" r="1" fill="darkred" stroke-width="1" stroke="darkred" />
<text x="75.13942543075352" y="178.15733538073812" font-size="10" fill="grey">Zon</text>
<text x="-300" y="-300.0" font-size="12" fill="black">Maan 00:54</text>
<circle cx="89.89252243445988" cy="187.11555543404495" r="1" fill="darkred" stroke-width="1" stroke="darkred" />
<text x="89.89252243445988" y="187.11555543404495" font-size="10" fill="grey">mer</text>
<circle cx="-40.694097168762724" cy="140.49560311203274" r="1" fill="darkred" stroke-width="1" stroke="darkred" />
<text x="-40.694097168762724" y="140.49560311203274" font-size="10" fill="grey">ven</text>
<circle cx="-196.49407389573497" cy="-9.00705123682829" r="1" fill="darkred" stroke-width="1" stroke="darkred" />
<text x="-196.49407389573497" y="-9.00705123682829" font-size="10" fill="grey">mar</text>
<circle cx="-7.9900133723000675" cy="158.76229550263116" r="1" fill="darkred" stroke-width="1" stroke="darkred" />
<text x="-7.9900133723000675" y="158.76229550263116" font-size="10" fill="grey">jup</text>
<circle cx="154.53031417528356" cy="187.20682511935416" r="1" fill="darkred" stroke-width="1" stroke="darkred" />
<text x="154.53031417528356" y="187.20682511935416" font-size="10" fill="grey">sat</text>
<circle cx="-107.15695373643855" cy="100.03718123444398" r="1" fill="darkred" stroke-width="1" stroke="darkred" />
<text x="-107.15695373643855" y="100.03718123444398" font-size="10" fill="grey">ura</text>
<circle cx="61.52209415087997" cy="179.82332637571974" r="1" fill="darkred" stroke-width="1" stroke="darkred" />
<text x="61.52209415087997" y="179.82332637571974" font-size="10" fill="grey">nep</text>
</svg>