<?xml version="1.0" encoding="UTF-8"?>
<svg xmlns="http://www.w3.org/2000/svg" xmlns:xlink="http://www.w3.org/1999/xlink"
     width="650" height="650" viewBox="-325.0 -325.0 650 650" displayInline="False">
<defs>
</defs>
<circle cx="0" cy="0" r="300" fill="lightgrey" stroke-width="2" stroke="black" />
<circle cx="-54.59153685449666" cy="-70.9070256887239" r="1.9300000000000002" fill="white" stroke-width="0.8" stroke="black" />
<circle cx="-31.37382102201798" cy="27.224804243270526" r="1.7200000000000002" fill="white" stroke-width="0.8" stroke="black" />
<circle cx="-67.20698617250892" cy="-115.90596312563305" r="1.17" fill="white" stroke-width="0.8" stroke="black" />
<circle cx="-84.50021206182423" cy="-194.78695331247954" r="0.43999999999999995" fill="white" stroke-width="0.8" stroke="black" />
<circle cx="-49.0012683405793" cy="14.389917820756013" r="0.31000000000000005" fill="white" stroke-width="0.8" stroke="black" />
<circle cx="-75.24425986828723" cy="-58.780348315053416" r="0.73" fill="white" stroke-width="0.8" stroke="black" />
<circle cx="-47.3604740426823" cy="23.307119840968532" r="1.7599999999999998" fill="white" stroke-width="0.8" stroke="black" />
<circle cx="-111.70717973348245" cy="-220.28853015043157" r="1.96" fill="white" stroke-width="0.8" stroke="black" />
<circle cx="-49.304802243527945" cy="28.778532925952533" r="0.54" fill="white" stroke-width="0.8" stroke="black" />
<circle cx="-48.10458652394573" cy="39.04065619846757" r="1.85" fill="white" stroke-width="0.8" stroke="black" />
<circle cx="-78.2462806704519" cy="-29.96214076994234" r="0.14000000000000012" fill="white" stroke-width="0.8" stroke="black" />
<circle cx="-133.37570470787318" cy="-186.14443813985667" r="0.54" fill="white" stroke-width="0.8" stroke="black" />
<circle cx="-89.93862647950124" cy="-35.43510367062965" r="1.9300000000000002" fill="white" stroke-width="0.8" stroke="black" />
<circle cx="-147.019697875012" cy="-173.82801398915927" r="0.3999999999999999" fill="white" stroke-width="0.8" stroke="black" />
<circle cx="-59.39841284242127" cy="43.32998542984694" r="1.3399999999999999" fill="white" stroke-width="0.8" stroke="black" />
<circle cx="-131.20835208941995" cy="-92.39322591219425" r="0.3799999999999999" fill="white" stroke-width="0.8" stroke="black" />
<circle cx="-85.24904320967956" cy="12.660594183464527" r="0.41000000000000014" fill="white" stroke-width="0.8" stroke="black" />
<circle cx="-171.10983225450912" cy="-192.95529449373566" r="0.5099999999999998" fill="white" stroke-width="0.8" stroke="black" />
<circle cx="-174.6051117012443" cy="-170.00934957737365" r="0.2599999999999998" fill="white" stroke-width="0.8" stroke="black" />
<circle cx="-126.35664546423676" cy="-38.810040619535926" r="0.5800000000000001" fill="white" stroke-width="0.8" stroke="black" />
<circle cx="-142.66772094650102" cy="-70.52859499669655" r="0.1200000000000001" fill="white" stroke-width="0.8" stroke="black" />
<circle cx="-61.721303389016825" cy="59.35952765600704" r="0.6499999999999999" fill="white" stroke-width="0.8" stroke="black" />
<circle cx="-141.2221262139299" cy="-65.27011589476014" r="1.3599999999999999" fill="white" stroke-width="0.8" stroke="black" />
<circle cx="-189.333741020656" cy="-204.689016711308" r="0.009999999999999787" fill="white" stroke-width="0.8" stroke="black" />
<circle cx="-171.411316113409" cy="-120.19452236362261" r="0.18000000000000016" fill="white" stroke-width="0.8" stroke="black" />
<circle cx="-43.94058015730315" cy="83.88040366192901" r="0.04999999999999982" fill="white" stroke-width="0.8" stroke="black" />
<circle cx="-109.55459744775558" cy="3.223215143309279" r="1.9" fill="white" stroke-width="0.8" stroke="black" />
<circle cx="-145.72798542347988" cy="-51.32225102493103" r="1.9900000000000002" fill="white" stroke-width="0.8" stroke="black" />
<circle cx="-126.68299352018296" cy="-15.714110650007632" r="1.0" fill="white" stroke-width="0.8" stroke="black" />
<circle cx="-1.9861537091478634" cy="124.41060722460504" r="2.0300000000000002" fill="white" stroke-width="0.8" stroke="black" />
<circle cx="-204.77325031933222" cy="-96.118754231824" r="0.5299999999999998" fill="white" stroke-width="0.8" stroke="black" />
<circle cx="-165.25248884922803" cy="-18.12118631665882" r="0.3900000000000001" fill="white" stroke-width="0.8" stroke="black" />
<circle cx="-97.16747269409939" cy="56.4290870828854" r="0.22999999999999998" fill="white" stroke-width="0.8" stroke="black" />
<circle cx="-106.4691796507239" cy="50.40592132224939" r="0.06999999999999984" fill="white" stroke-width="0.8" stroke="black" />
<circle cx="-232.25987084643975" cy="-129.779648745315" r="0.10999999999999988" fill="white" stroke-width="0.8" stroke="black" />
<circle cx="-218.13168555850518" cy="-81.28460616967108" r="1.46" fill="white" stroke-width="0.8" stroke="black" />
<circle cx="-107.78303665980597" cy="56.31650724916328" r="1.0899999999999999" fill="white" stroke-width="0.8" stroke="black" />
<circle cx="-146.1171409293094" cy="21.323341283055363" r="0.6800000000000002" fill="white" stroke-width="0.8" stroke="black" />
<circle cx="-142.04743288256313" cy="28.166683778500925" r="1.9100000000000001" fill="white" stroke-width="0.8" stroke="black" />
<circle cx="-132.46977961978587" cy="38.31217028271664" r="0.20999999999999996" fill="white" stroke-width="0.8" stroke="black" />
<circle cx="-123.76634533620941" cy="56.69285104090147" r="2.21" fill="white" stroke-width="0.8" stroke="black" />
<circle cx="-225.04620372944174" cy="-49.898632860022104" r="0.3900000000000001" fill="white" stroke-width="0.8" stroke="black" />
<circle cx="-225.1703964775177" cy="-46.01141735164012" r="0.27" fill="white" stroke-width="0.8" stroke="black" />
<circle cx="-263.70743039152813" cy="-106.42950560894548" r="0.2799999999999998" fill="white" stroke-width="0.8" stroke="black" />
<circle cx="-135.17182263561762" cy="61.36565929939492" r="0.9900000000000002" fill="white" stroke-width="0.8" stroke="black" />
<circle cx="-272.4956570747653" cy="-99.5606673425202" r="0.48" fill="white" stroke-width="0.8" stroke="black" />
<circle cx="-179.81132298365486" cy="27.934965954309124" r="0.16000000000000014" fill="white" stroke-width="0.8" stroke="black" />
<circle cx="-201.7628811481282" cy="7.827673534187407" r="0.2799999999999998" fill="white" stroke-width="0.8" stroke="black" />
<circle cx="-151.12443118246168" cy="51.75764765760877" r="0.22999999999999998" fill="white" stroke-width="0.8" stroke="black" />
<circle cx="-201.56259293939547" cy="9.161479163454622" r="0.1299999999999999" fill="white" stroke-width="0.8" stroke="black" />
<circle cx="-203.03570102931215" cy="9.652375355058963" r="1.15" fill="white" stroke-width="0.8" stroke="black" />
<circle cx="-203.96691627132427" cy="10.71431657164514" r="0.3799999999999999" fill="white" stroke-width="0.8" stroke="black" />
<circle cx="-184.85497424497146" cy="33.428567262582845" r="1.1600000000000001" fill="white" stroke-width="0.8" stroke="black" />
<circle cx="-162.65657605258056" cy="53.726162334802844" r="1.1" fill="white" stroke-width="0.8" stroke="black" />
<circle cx="-175.43920304329643" cy="45.43119612647745" r="0.020000000000000018" fill="white" stroke-width="0.8" stroke="black" />
<circle cx="-239.24258425894794" cy="-12.034424082339047" r="0.5899999999999999" fill="white" stroke-width="0.8" stroke="black" />
<circle cx="-256.1498823767776" cy="-29.428928846430747" r="0.08999999999999986" fill="white" stroke-width="0.8" stroke="black" />
<circle cx="-141.91726247490908" cy="74.7331075631046" r="0.040000000000000036" fill="white" stroke-width="0.8" stroke="black" />
<circle cx="-240.85588223979323" cy="12.538161970341037" r="0.3500000000000001" fill="white" stroke-width="0.8" stroke="black" />
<circle cx="-237.00221692911938" cy="20.21326112501857" r="0.22999999999999998" fill="white" stroke-width="0.8" stroke="black" />
<circle cx="-243.89217915533962" cy="20.95236779896466" r="0.16000000000000014" fill="white" stroke-width="0.8" stroke="black" />
<circle cx="-234.75580159589435" cy="29.148549077707116" r="0.4700000000000002" fill="white" stroke-width="0.8" stroke="black" />
<circle cx="-244.18696031672246" cy="20.790926503163117" r="0.6000000000000001" fill="white" stroke-width="0.8" stroke="black" />
<circle cx="-245.42980097154341" cy="28.78862511573048" r="3.13" fill="white" stroke-width="0.8" stroke="black" />
<circle cx="-297.877748228562" cy="-29.614795634268074" r="0.06999999999999984" fill="white" stroke-width="0.8" stroke="black" />
<circle cx="-278.5973719635104" cy="16.208037413981046" r="0.81" fill="white" stroke-width="0.8" stroke="black" />
<circle cx="-282.99482694560237" cy="13.631213650544026" r="0.31999999999999984" fill="white" stroke-width="0.8" stroke="black" />
<circle cx="-293.11767646547986" cy="7.231799990118971" r="0.29000000000000004" fill="white" stroke-width="0.8" stroke="black" />
<circle cx="-199.52756953243934" cy="81.4889907079797" r="1.31" fill="white" stroke-width="0.8" stroke="black" />
<circle cx="-164.0016459897334" cy="100.62798606707973" r="0.9700000000000002" fill="white" stroke-width="0.8" stroke="black" />
<circle cx="-173.55688890743528" cy="97.41966032505074" r="0.31000000000000005" fill="white" stroke-width="0.8" stroke="black" />
<circle cx="-173.49290558651023" cy="100.39495985652573" r="0.8199999999999998" fill="white" stroke-width="0.8" stroke="black" />
<circle cx="-157.63842309409503" cy="112.4948660066244" r="3.92" fill="white" stroke-width="0.8" stroke="black" />
<circle cx="-294.1125596668145" cy="51.31666432575306" r="2.3600000000000003" fill="white" stroke-width="0.8" stroke="black" />
<circle cx="-219.7767124132283" cy="98.26172738871986" r="2.35" fill="white" stroke-width="0.8" stroke="black" />
<circle cx="-285.2554820295108" cy="71.3288438883285" r="0.6099999999999999" fill="white" stroke-width="0.8" stroke="black" />
<circle cx="-247.29807146766984" cy="96.7284587591047" r="1.0299999999999998" fill="white" stroke-width="0.8" stroke="black" />
<circle cx="-182.95829331552576" cy="130.7621325438452" r="0.029999999999999805" fill="white" stroke-width="0.8" stroke="black" />
<circle cx="-126.98749156208" cy="141.9555887905226" r="0.2799999999999998" fill="white" stroke-width="0.8" stroke="black" />
<circle cx="-161.23045098579777" cy="139.7840372423073" r="2.1" fill="white" stroke-width="0.8" stroke="black" />
<circle cx="-189.74395316561169" cy="135.73247756490304" r="1.35" fill="white" stroke-width="0.8" stroke="black" />
<circle cx="-243.61331053269672" cy="136.12673744916628" r="0.69" fill="white" stroke-width="0.8" stroke="black" />
<circle cx="-242.9269959215454" cy="144.4439524830457" r="1.13" fill="white" stroke-width="0.8" stroke="black" />
<circle cx="-229.44268840287165" cy="167.90329675408475" r="0.94" fill="white" stroke-width="0.8" stroke="black" />
<circle cx="-193.42416041948212" cy="178.36872839217096" r="0.3999999999999999" fill="white" stroke-width="0.8" stroke="black" />
<circle cx="-204.89558644914223" cy="209.198776990247" r="0.2200000000000002" fill="white" stroke-width="0.8" stroke="black" />
<circle cx="-185.34067179692164" cy="215.07310753761067" r="2.42" fill="white" stroke-width="0.8" stroke="black" />
<circle cx="-194.0220506817318" cy="227.3689344911124" r="2.84" fill="white" stroke-width="0.8" stroke="black" />
<circle cx="-68.0034966535484" cy="200.0658124515663" r="0.6499999999999999" fill="white" stroke-width="0.8" stroke="black" />
<circle cx="-84.7472112809226" cy="241.288167248612" r="0.8799999999999999" fill="white" stroke-width="0.8" stroke="black" />
<circle cx="-98.93421534994742" cy="257.54869547544695" r="0.040000000000000036" fill="white" stroke-width="0.8" stroke="black" />
<circle cx="-83.95589258089498" cy="245.3272807841665" r="0.43000000000000016" fill="white" stroke-width="0.8" stroke="black" />
<circle cx="-95.92566025799633" cy="279.035613621024" r="0.18000000000000016" fill="white" stroke-width="0.8" stroke="black" />
<circle cx="-37.91721536714349" cy="208.3610518388938" r="0.3500000000000001" fill="white" stroke-width="0.8" stroke="black" />
<circle cx="-55.858649566639365" cy="242.49025355010752" r="0.8300000000000001" fill="white" stroke-width="0.8" stroke="black" />
<circle cx="-34.39400415244313" cy="223.92422849257585" r="0.2200000000000002" fill="white" stroke-width="0.8" stroke="black" />
<circle cx="-33.767717126120516" cy="279.601803710292" r="0.5499999999999998" fill="white" stroke-width="0.8" stroke="black" />
<circle cx="-30.21658385028409" cy="285.0343119457502" r="0.94" fill="white" stroke-width="0.8" stroke="black" />
<circle cx="4.448087326871311" cy="237.83693744586145" r="1.6600000000000001" fill="white" stroke-width="0.8" stroke="black" />
<circle cx="4.609637154794687" cy="219.92233313567857" r="2.19" fill="white" stroke-width="0.8" stroke="black" />
<circle cx="13.086667791684313" cy="277.0436260151225" r="1.0" fill="white" stroke-width="0.8" stroke="black" />
<circle cx="12.986680300758618" cy="193.70085025753696" r="0.18000000000000016" fill="white" stroke-width="0.8" stroke="black" />
<circle cx="40.2917286860885" cy="261.526636158579" r="0.31000000000000005" fill="white" stroke-width="0.8" stroke="black" />
<circle cx="38.66921995297015" cy="241.4259567258826" r="1.5899999999999999" fill="white" stroke-width="0.8" stroke="black" />
<circle cx="46.54806098845916" cy="226.88989597845782" r="0.6800000000000002" fill="white" stroke-width="0.8" stroke="black" />
<circle cx="32.76863716598131" cy="185.99237490368506" r="0.1499999999999999" fill="white" stroke-width="0.8" stroke="black" />
<circle cx="68.75016348236376" cy="219.64453330605144" r="2.24" fill="white" stroke-width="0.8" stroke="black" />
<circle cx="113.55750591671965" cy="262.0623151934929" r="1.1099999999999999" fill="white" stroke-width="0.8" stroke="black" />
<circle cx="85.5746553936316" cy="211.59510044813229" r="1.77" fill="white" stroke-width="0.8" stroke="black" />
<circle cx="85.98799263056772" cy="210.9522819519547" r="0.009999999999999787" fill="white" stroke-width="0.8" stroke="black" />
<circle cx="112.78820746384854" cy="212.02094699475086" r="2.15" fill="white" stroke-width="0.8" stroke="black" />
<circle cx="72.62196355734432" cy="178.30986121277905" r="0.33000000000000007" fill="white" stroke-width="0.8" stroke="black" />
<circle cx="198.86051381674878" cy="200.83102339471247" r="0.43000000000000016" fill="white" stroke-width="0.8" stroke="black" />
<circle cx="169.4097456587973" cy="196.8044440638808" r="0.96" fill="white" stroke-width="0.8" stroke="black" />
<circle cx="216.3975745703478" cy="188.83865361046804" r="1.65" fill="white" stroke-width="0.8" stroke="black" />
<circle cx="50.43087706535118" cy="150.4333495453763" r="1.9300000000000002" fill="white" stroke-width="0.8" stroke="black" />
<circle cx="170.9857921411319" cy="173.37164611972364" r="0.5099999999999998" fill="white" stroke-width="0.8" stroke="black" />
<circle cx="200.5358694632301" cy="162.04181885193256" r="0.54" fill="white" stroke-width="0.8" stroke="black" />
<circle cx="61.566117903353536" cy="146.0635983667913" r="1.0" fill="white" stroke-width="0.8" stroke="black" />
<circle cx="107.5384211861017" cy="153.30923629853976" r="0.71" fill="white" stroke-width="0.8" stroke="black" />
<circle cx="218.38466076260517" cy="148.81315798786443" r="0.33999999999999986" fill="white" stroke-width="0.8" stroke="black" />
<circle cx="228.09601691953353" cy="140.3531617309813" r="1.7799999999999998" fill="white" stroke-width="0.8" stroke="black" />
<circle cx="230.1464955006038" cy="132.2127258382559" r="0.18999999999999995" fill="white" stroke-width="0.8" stroke="black" />
<circle cx="270.2894110438022" cy="113.55642366078362" r="0.3500000000000001" fill="white" stroke-width="0.8" stroke="black" />
<circle cx="268.7163135188027" cy="102.74501675732385" r="0.1499999999999999" fill="white" stroke-width="0.8" stroke="black" />
<circle cx="157.3026377755061" cy="121.01425979266162" r="0.08999999999999986" fill="white" stroke-width="0.8" stroke="black" />
<circle cx="252.87158536573224" cy="83.05578676467461" r="0.2599999999999998" fill="white" stroke-width="0.8" stroke="black" />
<circle cx="102.45325712503532" cy="127.37320761885356" r="1.27" fill="white" stroke-width="0.8" stroke="black" />
<circle cx="243.35717858940149" cy="79.56209772910685" r="1.2200000000000002" fill="white" stroke-width="0.8" stroke="black" />
<circle cx="207.1064797571612" cy="87.68553990450927" r="1.19" fill="white" stroke-width="0.8" stroke="black" />
<circle cx="181.79690466332832" cy="97.31889211553485" r="0.52" fill="white" stroke-width="0.8" stroke="black" />
<circle cx="272.8549988612591" cy="24.744328677493794" r="0.81" fill="white" stroke-width="0.8" stroke="black" />
<circle cx="205.49774492694402" cy="71.3687510089701" r="0.08000000000000007" fill="white" stroke-width="0.8" stroke="black" />
<circle cx="86.27388457250753" cy="112.88487788762221" r="0.8300000000000001" fill="white" stroke-width="0.8" stroke="black" />
<circle cx="251.28959670708076" cy="22.24001131920652" r="1.2200000000000002" fill="white" stroke-width="0.8" stroke="black" />
<circle cx="220.43458831906463" cy="47.157736378634986" r="0.8799999999999999" fill="white" stroke-width="0.8" stroke="black" />
<circle cx="182.9607620047861" cy="71.20829373932973" r="0.8399999999999999" fill="white" stroke-width="0.8" stroke="black" />
<circle cx="129.4760595755448" cy="87.62577181695917" r="1.21" fill="white" stroke-width="0.8" stroke="black" />
<circle cx="246.68123870479536" cy="-0.470458048337111" r="1.92" fill="white" stroke-width="0.8" stroke="black" />
<circle cx="147.89748484638704" cy="72.38335686392723" r="0.18000000000000016" fill="white" stroke-width="0.8" stroke="black" />
<circle cx="261.3659440477486" cy="-31.609356519777723" r="1.2400000000000002" fill="white" stroke-width="0.8" stroke="black" />
<circle cx="200.36259001557485" cy="29.685884418738542" r="0.5800000000000001" fill="white" stroke-width="0.8" stroke="black" />
<circle cx="262.7341677577246" cy="-41.320515228954186" r="0.25" fill="white" stroke-width="0.8" stroke="black" />
<circle cx="110.58879737455796" cy="84.19391468496516" r="0.27" fill="white" stroke-width="0.8" stroke="black" />
<circle cx="169.50464854189974" cy="44.90645514375425" r="0.14000000000000012" fill="white" stroke-width="0.8" stroke="black" />
<circle cx="126.80799247027288" cy="73.37516798383139" r="1.7599999999999998" fill="white" stroke-width="0.8" stroke="black" />
<circle cx="191.45587024344988" cy="25.420009607009998" r="0.2999999999999998" fill="white" stroke-width="0.8" stroke="black" />
<circle cx="278.3888903876149" cy="-94.05570674134387" r="0.6800000000000002" fill="white" stroke-width="0.8" stroke="black" />
<circle cx="253.86242221763843" cy="-51.13454689741178" r="0.06999999999999984" fill="white" stroke-width="0.8" stroke="black" />
<circle cx="235.358733842655" cy="-35.52080748478275" r="0.29000000000000004" fill="white" stroke-width="0.8" stroke="black" />
<circle cx="188.52198233361133" cy="17.617884968301613" r="0.16000000000000014" fill="white" stroke-width="0.8" stroke="black" />
<circle cx="56.24468996560609" cy="101.24236129477464" r="0.4500000000000002" fill="white" stroke-width="0.8" stroke="black" />
<circle cx="249.852682115807" cy="-86.7838980299277" r="0.77" fill="white" stroke-width="0.8" stroke="black" />
<circle cx="197.91549121953526" cy="-11.766623083791258" r="0.1499999999999999" fill="white" stroke-width="0.8" stroke="black" />
<circle cx="246.7689610949624" cy="-115.71737266763952" r="0.1499999999999999" fill="white" stroke-width="0.8" stroke="black" />
<circle cx="149.66996007969976" cy="24.983207983326345" r="3.97" fill="white" stroke-width="0.8" stroke="black" />
<circle cx="156.89884388306433" cy="3.856826365103308" r="0.48" fill="white" stroke-width="0.8" stroke="black" />
<circle cx="239.45130341551484" cy="-178.56596369835927" r="0.48" fill="white" stroke-width="0.8" stroke="black" />
<circle cx="153.93310795459635" cy="-2.7242774031469454" r="0.75" fill="white" stroke-width="0.8" stroke="black" />
<circle cx="233.21983490097176" cy="-185.0131750921066" r="0.2400000000000002" fill="white" stroke-width="0.8" stroke="black" />
<circle cx="188.01218350398844" cy="-61.60093002328002" r="1.0099999999999998" fill="white" stroke-width="0.8" stroke="black" />
<circle cx="216.0920723526345" cy="-123.94316378145147" r="0.5699999999999998" fill="white" stroke-width="0.8" stroke="black" />
<circle cx="227.95346738541886" cy="-185.0625784704867" r="1.12" fill="white" stroke-width="0.8" stroke="black" />
<circle cx="62.898340449150965" cy="79.33350656021337" r="0.9300000000000002" fill="white" stroke-width="0.8" stroke="black" />
<circle cx="97.8426260677864" cy="43.62480646753813" r="0.20000000000000018" fill="white" stroke-width="0.8" stroke="black" />
<circle cx="214.6004887682765" cy="-179.484408825492" r="0.08000000000000007" fill="white" stroke-width="0.8" stroke="black" />
<circle cx="189.49056750873316" cy="-107.80817099876595" r="0.6400000000000001" fill="white" stroke-width="0.8" stroke="black" />
<circle cx="97.03545346273577" cy="34.91929323012407" r="0.2400000000000002" fill="white" stroke-width="0.8" stroke="black" />
<circle cx="145.5284268241246" cy="-32.32790020352368" r="0.9500000000000002" fill="white" stroke-width="0.8" stroke="black" />
<circle cx="104.57021860114138" cy="11.355821259761255" r="1.1400000000000001" fill="white" stroke-width="0.8" stroke="black" />
<circle cx="162.54347014147442" cy="-93.90147414191676" r="1.2799999999999998" fill="white" stroke-width="0.8" stroke="black" />
<circle cx="150.23572459246924" cy="-69.12590289511773" r="0.31999999999999984" fill="white" stroke-width="0.8" stroke="black" />
<circle cx="48.8969595726874" cy="78.03957349648866" r="0.16000000000000014" fill="white" stroke-width="0.8" stroke="black" />
<circle cx="161.2304024803626" cy="-101.74985878583381" r="3.24" fill="white" stroke-width="0.8" stroke="black" />
<circle cx="169.22376294225847" cy="-128.6450135698532" r="0.1299999999999999" fill="white" stroke-width="0.8" stroke="black" />
<circle cx="160.59617229644493" cy="-111.97523778306338" r="0.29000000000000004" fill="white" stroke-width="0.8" stroke="black" />
<circle cx="117.35939367567764" cy="-22.21490235095713" r="0.10999999999999988" fill="white" stroke-width="0.8" stroke="black" />
<circle cx="140.53464066807987" cy="-71.23164889822957" r="0.4900000000000002" fill="white" stroke-width="0.8" stroke="black" />
<circle cx="154.39662195418305" cy="-143.21028962168813" r="0.7599999999999998" fill="white" stroke-width="0.8" stroke="black" />
<circle cx="87.81296781322489" cy="6.40799788120543" r="0.20000000000000018" fill="white" stroke-width="0.8" stroke="black" />
<circle cx="85.23890555569209" cy="8.733472740569342" r="0.040000000000000036" fill="white" stroke-width="0.8" stroke="black" />
<circle cx="156.98186223733435" cy="-186.2329604813543" r="0.41999999999999993" fill="white" stroke-width="0.8" stroke="black" />
<circle cx="155.32862117546296" cy="-195.18158279191326" r="0.9500000000000002" fill="white" stroke-width="0.8" stroke="black" />
<circle cx="93.95195431770301" cy="-15.76047998957456" r="1.77" fill="white" stroke-width="0.8" stroke="black" />
<circle cx="116.59742649135487" cy="-102.13596063315357" r="0.3599999999999999" fill="white" stroke-width="0.8" stroke="black" />
<circle cx="113.54739577693141" cy="-98.54568286644171" r="0.22999999999999998" fill="white" stroke-width="0.8" stroke="black" />
<circle cx="75.95437126097136" cy="-5.868028190625211" r="2.75" fill="white" stroke-width="0.8" stroke="black" />
<circle cx="49.35347686238671" cy="43.75776727251089" r="0.5899999999999999" fill="white" stroke-width="0.8" stroke="black" />
<circle cx="88.15020283648961" cy="-42.57311201707234" r="1.52" fill="white" stroke-width="0.8" stroke="black" />
<circle cx="126.47600852702331" cy="-186.10330105433022" r="0.2200000000000002" fill="white" stroke-width="0.8" stroke="black" />
<circle cx="72.58102093875087" cy="-22.687741651140723" r="0.06000000000000005" fill="white" stroke-width="0.8" stroke="black" />
<circle cx="64.8456345536977" cy="-15.723730798471404" r="0.2799999999999998" fill="white" stroke-width="0.8" stroke="black" />
<circle cx="74.12044243128702" cy="-61.54346393605581" r="0.79" fill="white" stroke-width="0.8" stroke="black" />
<circle cx="65.30310519450447" cy="-36.66988953358484" r="0.2599999999999998" fill="white" stroke-width="0.8" stroke="black" />
<circle cx="91.31278929271686" cy="-144.41691282478942" r="0.08000000000000007" fill="white" stroke-width="0.8" stroke="black" />
<circle cx="36.458113296780354" cy="40.85256880238088" r="1.5499999999999998" fill="white" stroke-width="0.8" stroke="black" />
<circle cx="91.3747009163552" cy="-240.24622886600287" r="0.22999999999999998" fill="white" stroke-width="0.8" stroke="black" />
<circle cx="23.98265857508337" cy="64.92035648850184" r="0.77" fill="white" stroke-width="0.8" stroke="black" />
<circle cx="81.89989556668893" cy="-184.2291401621597" r="1.1" fill="white" stroke-width="0.8" stroke="black" />
<circle cx="46.77160484009055" cy="-15.832882299061291" r="0.020000000000000018" fill="white" stroke-width="0.8" stroke="black" />
<circle cx="76.6113201905852" cy="-223.23330275938983" r="0.31000000000000005" fill="white" stroke-width="0.8" stroke="black" />
<circle cx="63.320641661127866" cy="-135.0509847315121" r="1.62" fill="white" stroke-width="0.8" stroke="black" />
<circle cx="69.41472311298753" cy="-222.59209075274023" r="1.15" fill="white" stroke-width="0.8" stroke="black" />
<circle cx="47.099459331156396" cy="-172.26125852043134" r="1.0499999999999998" fill="white" stroke-width="0.8" stroke="black" />
<circle cx="37.28392617322311" cy="-86.99448395325899" r="0.22999999999999998" fill="white" stroke-width="0.8" stroke="black" />
<circle cx="41.17917385040711" cy="-151.0360330666059" r="0.48" fill="white" stroke-width="0.8" stroke="black" />
<circle cx="19.365803109412877" cy="21.34133516049018" r="0.6099999999999999" fill="white" stroke-width="0.8" stroke="black" />
<circle cx="32.060446692710784" cy="-177.4382998536571" r="0.14000000000000012" fill="white" stroke-width="0.8" stroke="black" />
<circle cx="24.938418471073334" cy="-173.40069999029714" r="0.3500000000000001" fill="white" stroke-width="0.8" stroke="black" />
<circle cx="12.60544206262043" cy="-6.0521776442007384" r="0.2400000000000002" fill="white" stroke-width="0.8" stroke="black" />
<circle cx="11.947107520869215" cy="-137.84047324588192" r="0.5899999999999999" fill="white" stroke-width="0.8" stroke="black" />
<circle cx="8.770146960457998" cy="-73.2671270283954" r="1.0699999999999998" fill="white" stroke-width="0.8" stroke="black" />
<circle cx="6.636069115861587" cy="-95.52917892560008" r="0.029999999999999805" fill="white" stroke-width="0.8" stroke="black" />
<circle cx="1.8653862163202393" cy="46.52490357446502" r="0.5" fill="white" stroke-width="0.8" stroke="black" />
<circle cx="3.828506679278109" cy="-92.12956725958456" r="0.4900000000000002" fill="white" stroke-width="0.8" stroke="black" />
<circle cx="2.1553199534032643" cy="-199.41924381996435" r="0.27" fill="white" stroke-width="0.8" stroke="black" />
<circle cx="0.10702577049041075" cy="-226.8954125138046" r="0.73" fill="white" stroke-width="0.8" stroke="black" />
<circle cx="-3.082488367085243" cy="-272.8916651680189" r="2.83" fill="white" stroke-width="0.8" stroke="black" />
<circle cx="-4.32274404318483" cy="-33.0175844531666" r="0.3799999999999999" fill="white" stroke-width="0.8" stroke="black" />
<circle cx="-6.741701149776865" cy="-80.4493871050674" r="1.56" fill="white" stroke-width="0.8" stroke="black" />
<circle cx="-8.565147188331082" cy="-123.34891816899524" r="1.5099999999999998" fill="white" stroke-width="0.8" stroke="black" />
<circle cx="-15.281223617774362" cy="-244.48192683802975" r="0.31999999999999984" fill="white" stroke-width="0.8" stroke="black" />
<circle cx="-21.086773145780622" cy="-162.580057352054" r="0.2999999999999998" fill="white" stroke-width="0.8" stroke="black" />
<circle cx="-29.258436895479893" cy="-240.2449770461495" r="0.040000000000000036" fill="white" stroke-width="0.8" stroke="black" />
<circle cx="-24.419350104131457" cy="-17.527760605473528" r="0.18999999999999995" fill="white" stroke-width="0.8" stroke="black" />
<circle cx="-8.031008863851838" cy="85.32879585606898" r="0.79" fill="white" stroke-width="0.8" stroke="black" />
<circle cx="126.09841906230697" cy="-214.0229229721198" r="1" fill="darkred" stroke-width="1" stroke="blue" />
<text x="126.09841906230697" y="-214.0229229721198" font-size="8" fill="grey">300P/Catalina</text>
<circle cx="-25.42431171793923" cy="-187.4390401403243" r="1" fill="darkred" stroke-width="1" stroke="darkred" />
<text x="-25.42431171793923" y="-187.4390401403243" font-size="10" fill="grey">Zon</text>
<text x="-300" y="-300.0" font-size="12" fill="black">Maan 22:11</text>
<circle cx="-5.664475764847263" cy="-202.59479087437057" r="1" fill="darkred" stroke-width="1" stroke="darkred" />
<text x="-5.664475764847263" y="-202.59479087437057" font-size="10" fill="grey">mer</text>
<circle cx="-130.52794819308397" cy="-119.35576814828374" r="1" fill="darkred" stroke-width="1" stroke="darkred" />
<text x="-130.52794819308397" y="-119.35576814828374" font-size="10" fill="grey">ven</text>
<circle cx="-230.68331373510796" cy="94.83952367365175" r="1" fill="darkred" stroke-width="1" stroke="darkred" />
<text x="-230.68331373510796" y="94.83952367365175" font-size="10" fill="grey">mar</text>
<circle cx="-108.46670592659254" cy="-142.09014658558627" r="1" fill="darkred" stroke-width="1" stroke="darkred" />
<text x="-108.46670592659254" y="-142.09014658558627" font-size="10" fill="grey">jup</text>
<circle cx="45.16387476891125" cy="-214.05215505303434" r="1" fill="darkred" stroke-width="1" stroke="darkred" />
<text x="45.16387476891125" y="-214.05215505303434" font-size="10" fill="grey">sat</text>
<circle cx="-189.4173087366501" cy="-49.18989354327386" r="1" fill="darkred" stroke-width="1" stroke="darkred" />
<text x="-189.4173087366501" y="-49.18989354327386" font-size="10" fill="grey">ura</text>
<circle cx="-46.081970823389895" cy="-182.11276544170772" r="1" fill="darkred" stroke-width="1" stroke="darkred" />
<text x="-46.081970823389895" y="-182.11276544170772" font-size="10" fill="grey">nep</text>
</svg>